<svg width="1600" height="900" viewBox="0 0 1600 900" fill="none" xmlns="http://www.w3.org/2000/svg">
<path d="M0 0H1600V900H0V0Z" fill="white"/>
<rect x="192" y="342" width="108.779" height="16" rx="8" fill="url(#paint0_linear_23_2178)"/>
<rect x="192" y="374" width="250" height="12" rx="6" fill="#D9D9D9"/>
<rect x="192" y="394" width="212.309" height="12" rx="6" fill="#D9D9D9"/>
<rect x="192" y="414" width="108.779" height="12" rx="6" fill="#D9D9D9"/>
<rect x="474" y="342" width="108.779" height="16" rx="8" fill="url(#paint1_linear_23_2178)"/>
<rect x="474" y="374" width="250" height="12" rx="6" fill="#D9D9D9"/>
<rect x="474" y="394" width="212.309" height="12" rx="6" fill="#D9D9D9"/>
<rect x="474" y="414" width="108.779" height="12" rx="6" fill="#D9D9D9"/>
<rect x="192" y="474" width="108.779" height="16" rx="8" fill="url(#paint2_linear_23_2178)"/>
<rect x="192" y="506" width="250" height="12" rx="6" fill="#D9D9D9"/>
<rect x="192" y="526" width="212.309" height="12" rx="6" fill="#D9D9D9"/>
<rect x="192" y="546" width="108.779" height="12" rx="6" fill="#D9D9D9"/>
<rect x="474" y="474" width="108.779" height="16" rx="8" fill="url(#paint3_linear_23_2178)"/>
<rect x="474" y="506" width="250" height="12" rx="6" fill="#D9D9D9"/>
<rect x="474" y="526" width="212.309" height="12" rx="6" fill="#D9D9D9"/>
<rect x="474" y="546" width="108.779" height="12" rx="6" fill="#D9D9D9"/>
<rect x="848" y="170" width="560" height="560" rx="10" fill="#F9FAFB"/>
<defs>
<linearGradient id="paint0_linear_23_2178" x1="322.317" y1="336.832" x2="313.909" y2="376.102" gradientUnits="userSpaceOnUse">
<stop stop-color="#F7C0EC"/>
<stop offset="1" stop-color="#A7BDEA"/>
</linearGradient>
<linearGradient id="paint1_linear_23_2178" x1="604.317" y1="336.832" x2="595.909" y2="376.102" gradientUnits="userSpaceOnUse">
<stop stop-color="#F7C0EC"/>
<stop offset="1" stop-color="#A7BDEA"/>
</linearGradient>
<linearGradient id="paint2_linear_23_2178" x1="322.317" y1="468.832" x2="313.909" y2="508.102" gradientUnits="userSpaceOnUse">
<stop stop-color="#F7C0EC"/>
<stop offset="1" stop-color="#A7BDEA"/>
</linearGradient>
<linearGradient id="paint3_linear_23_2178" x1="604.317" y1="468.832" x2="595.909" y2="508.102" gradientUnits="userSpaceOnUse">
<stop stop-color="#F7C0EC"/>
<stop offset="1" stop-color="#A7BDEA"/>
</linearGradient>
</defs>
</svg>
