<svg width="1600" height="900" viewBox="0 0 1600 900" fill="none" xmlns="http://www.w3.org/2000/svg">
<rect width="1600" height="900" fill="white"/>
<path d="M80 357.978C80 348.049 87.5074 340 96.7683 340H1063.23C1072.49 340 1080 348.049 1080 357.978C1080 367.906 1072.49 375.955 1063.23 375.955H96.7683C87.5074 375.955 80 367.906 80 357.978Z" fill="#D9D9D9"/>
<path d="M80 416.813C80 406.885 87.5074 398.836 96.7683 398.836H498.346C507.607 398.836 515.115 406.885 515.115 416.813C515.115 426.742 507.607 434.791 498.346 434.791H96.7683C87.5074 434.791 80 426.742 80 416.813Z" fill="#D9D9D9"/>
<path d="M80 483.821C80 478.405 84.095 474.015 89.1463 474.015H842.195C847.247 474.015 851.341 478.405 851.341 483.821C851.341 489.237 847.247 493.627 842.195 493.627H89.1463C84.0949 493.627 80 489.237 80 483.821Z" fill="#F9FAFB"/>
<path d="M80 516.507C80 511.092 84.095 506.701 89.1463 506.701H725.905C730.956 506.701 735.051 511.092 735.051 516.507C735.051 521.923 730.956 526.313 725.905 526.313H89.1464C84.095 526.313 80 521.923 80 516.507Z" fill="#F9FAFB"/>
<path d="M80 549.194C80 543.778 84.095 539.388 89.1463 539.388H406.476C411.527 539.388 415.622 543.778 415.622 549.194C415.622 554.61 411.527 559 406.476 559H89.1463C84.0949 559 80 554.61 80 549.194Z" fill="#F9FAFB"/>
<rect x="1207" y="428" width="313" height="62" rx="30" fill="url(#paint0_linear_20_8245)"/>
<defs>
<linearGradient id="paint0_linear_20_8245" x1="1581.97" y1="407.974" x2="1539.61" y2="554.904" gradientUnits="userSpaceOnUse">
<stop stop-color="#F7C0EC"/>
<stop offset="1" stop-color="#A7BDEA"/>
</linearGradient>
</defs>
</svg>
