<svg width="1600" height="900" viewBox="0 0 1600 900" fill="none" xmlns="http://www.w3.org/2000/svg">
<rect width="1600" height="900" fill="white"/>
<path d="M695.75 269.687C695.75 264.889 699.64 261 704.438 261H895.562C900.36 261 904.25 264.889 904.25 269.687C904.25 274.484 900.36 278.373 895.562 278.373H704.438C699.64 278.373 695.75 274.484 695.75 269.687Z" fill="#D9D9D9"/>
<path d="M244 380.876C244 366.483 255.669 354.816 270.062 354.816H1329.94C1344.33 354.816 1356 366.483 1356 380.876C1356 395.268 1344.33 406.935 1329.94 406.935H270.062C255.669 406.935 244 395.268 244 380.876Z" fill="url(#paint0_linear_19_351)"/>
<path d="M558.076 460.793C558.076 446.4 569.745 434.733 584.139 434.733H1015.86C1030.26 434.733 1041.92 446.4 1041.92 460.793C1041.92 475.185 1030.26 486.853 1015.86 486.853H584.139C569.745 486.853 558.076 475.185 558.076 460.793Z" fill="url(#paint1_linear_19_351)"/>
<path d="M244 539.841C244 533.604 249.056 528.548 255.294 528.548H1344.71C1350.94 528.548 1356 533.604 1356 539.841C1356 546.078 1350.94 551.134 1344.71 551.134H255.294C249.056 551.134 244 546.078 244 539.841Z" fill="#F5F5F5"/>
<path d="M326.763 583.274C326.763 577.037 331.82 571.982 338.057 571.982H1259.82C1266.06 571.982 1271.11 577.037 1271.11 583.274C1271.11 589.511 1266.06 594.567 1259.82 594.567H338.057C331.82 594.567 326.763 589.511 326.763 583.274Z" fill="#F5F5F5"/>
<path d="M558.076 626.707C558.076 620.471 563.133 615.415 569.37 615.415H1030.63C1036.87 615.415 1041.92 620.471 1041.92 626.707C1041.92 632.944 1036.87 638 1030.63 638H569.37C563.133 638 558.076 632.944 558.076 626.707Z" fill="#F5F5F5"/>
<defs>
<linearGradient id="paint0_linear_19_351" x1="1576.18" y1="139.229" x2="1192.14" y2="917.412" gradientUnits="userSpaceOnUse">
<stop stop-color="#F7C0EC"/>
<stop offset="1" stop-color="#A7BDEA"/>
</linearGradient>
<linearGradient id="paint1_linear_19_351" x1="1576.18" y1="139.229" x2="1192.14" y2="917.412" gradientUnits="userSpaceOnUse">
<stop stop-color="#F7C0EC"/>
<stop offset="1" stop-color="#A7BDEA"/>
</linearGradient>
</defs>
</svg>
