<svg width="1600" height="900" viewBox="0 0 1600 900" fill="none" xmlns="http://www.w3.org/2000/svg">
<rect width="1600" height="900" fill="white"/>
<circle cx="177.5" cy="449.5" r="49.5" fill="url(#paint0_linear_18_24)"/>
<path d="M158.938 453.625H183.688C184.782 453.625 185.831 454.06 186.604 454.833C187.378 455.607 187.813 456.656 187.813 457.75V463.938C187.813 465.032 187.378 466.081 186.604 466.854C185.831 467.628 184.782 468.063 183.688 468.063H163.063C161.968 468.063 160.919 467.628 160.146 466.854C159.372 466.081 158.938 465.032 158.938 463.938V443.313C158.938 442.218 159.372 441.169 160.146 440.396C160.919 439.622 161.968 439.188 163.063 439.188H169.25C170.344 439.188 171.393 439.622 172.167 440.396C172.94 441.169 173.375 442.218 173.375 443.313V468.063M181.625 433C181.625 432.453 181.842 431.928 182.229 431.542C182.616 431.155 183.14 430.938 183.688 430.938H194C194.547 430.938 195.072 431.155 195.458 431.542C195.845 431.928 196.063 432.453 196.063 433V443.313C196.063 443.86 195.845 444.384 195.458 444.771C195.072 445.158 194.547 445.375 194 445.375H183.688C183.14 445.375 182.616 445.158 182.229 444.771C181.842 444.384 181.625 443.86 181.625 443.313V433Z" stroke="white" stroke-width="5" stroke-linecap="round" stroke-linejoin="round"/>
<path d="M307 449.5C307 456.404 312.592 462 319.491 462H440.319C447.218 462 452.81 456.404 452.81 449.5C452.81 442.596 447.218 437 440.319 437H319.491C312.592 437 307 442.596 307 449.5Z" fill="#D9D9D9"/>
<path d="M467.595 449.5C467.595 456.404 473.187 462 480.086 462H600.914C607.813 462 613.405 456.404 613.405 449.5C613.405 442.596 607.813 437 600.914 437H480.086C473.187 437 467.595 442.596 467.595 449.5Z" fill="#D9D9D9"/>
<path d="M628.19 449.5C628.19 456.404 633.782 462 640.681 462H761.509C768.408 462 774 456.404 774 449.5C774 442.596 768.408 437 761.509 437H640.681C633.782 437 628.19 442.596 628.19 449.5Z" fill="#D9D9D9"/>
<path d="M1331.19 449.5C1331.19 456.404 1336.78 462 1343.68 462H1464.51C1471.41 462 1477 456.404 1477 449.5C1477 442.596 1471.41 437 1464.51 437H1343.68C1336.78 437 1331.19 442.596 1331.19 449.5Z" fill="#D9D9D9"/>
<defs>
<linearGradient id="paint0_linear_18_24" x1="246.602" y1="368.023" x2="128" y2="449.5" gradientUnits="userSpaceOnUse">
<stop stop-color="#F7C0EC"/>
<stop offset="1" stop-color="#A7BDEA"/>
</linearGradient>
</defs>
</svg>
