<svg width="1600" height="900" viewBox="0 0 1600 900" fill="none" xmlns="http://www.w3.org/2000/svg">
<rect width="1600" height="900" fill="white"/>
<g filter="url(#filter0_d_23_1891)">
<path d="M85 222.5H391C393.485 222.5 395.5 224.515 395.5 227V673C395.5 675.485 393.485 677.5 391 677.5H85C82.5147 677.5 80.5 675.485 80.5 673V227C80.5 224.515 82.5147 222.5 85 222.5Z" stroke="#F9FAFB" shape-rendering="crispEdges"/>
<rect x="112" y="254" width="252" height="15" rx="7.5" fill="#D9D9D9"/>
<rect x="112" y="279" width="109.649" height="15" rx="7.5" fill="#D9D9D9"/>
<rect x="112" y="314" width="107.004" height="26" rx="13" fill="#D9D9D9"/>
<rect x="238" y="320" width="54.8244" height="15" rx="7.5" fill="#D9D9D9"/>
<rect x="112" y="360" width="109.649" height="12" rx="6" fill="#F9FAFB"/>
<line x1="112" y1="391.5" x2="364" y2="391.5" stroke="#F9FAFB"/>
<rect width="252" height="12" transform="translate(112 412)" fill="white"/>
<rect x="112" y="412" width="214.008" height="12" rx="6" fill="#D9D9D9"/>
<rect width="252" height="12" transform="translate(112 432)" fill="white"/>
<rect x="112" y="432" width="214.008" height="12" rx="6" fill="#D9D9D9"/>
<rect width="252" height="12" transform="translate(112 452)" fill="white"/>
<rect x="112" y="452" width="214.008" height="12" rx="6" fill="#D9D9D9"/>
<rect width="252" height="12" transform="translate(112 472)" fill="white"/>
<rect x="112" y="472" width="214.008" height="12" rx="6" fill="#D9D9D9"/>
<rect width="252" height="12" transform="translate(112 492)" fill="white"/>
<rect x="112" y="492" width="214.008" height="12" rx="6" fill="#D9D9D9"/>
<rect x="112" y="552" width="113" height="46" rx="12" fill="url(#paint0_linear_23_1891)"/>
<rect x="112" y="614" width="252" height="12" rx="6" fill="#F9FAFB"/>
<rect x="112" y="634" width="214.008" height="12" rx="6" fill="#F9FAFB"/>
</g>
<g filter="url(#filter1_d_23_1891)">
<path d="M460 222.5H766C768.485 222.5 770.5 224.515 770.5 227V673C770.5 675.485 768.485 677.5 766 677.5H460C457.515 677.5 455.5 675.485 455.5 673V227C455.5 224.515 457.515 222.5 460 222.5Z" stroke="#F9FAFB" shape-rendering="crispEdges"/>
<rect x="487" y="254" width="252" height="15" rx="7.5" fill="#D9D9D9"/>
<rect x="487" y="279" width="109.649" height="15" rx="7.5" fill="#D9D9D9"/>
<rect x="487" y="314" width="107.004" height="26" rx="13" fill="#D9D9D9"/>
<rect x="613" y="320" width="54.8244" height="15" rx="7.5" fill="#D9D9D9"/>
<rect x="487" y="360" width="109.649" height="12" rx="6" fill="#F9FAFB"/>
<line x1="487" y1="391.5" x2="739" y2="391.5" stroke="#F9FAFB"/>
<rect width="252" height="12" transform="translate(487 412)" fill="white"/>
<rect x="487" y="412" width="214.008" height="12" rx="6" fill="#D9D9D9"/>
<rect width="252" height="12" transform="translate(487 432)" fill="white"/>
<rect x="487" y="432" width="214.008" height="12" rx="6" fill="#D9D9D9"/>
<rect width="252" height="12" transform="translate(487 452)" fill="white"/>
<rect x="487" y="452" width="214.008" height="12" rx="6" fill="#D9D9D9"/>
<rect width="252" height="12" transform="translate(487 472)" fill="white"/>
<rect x="487" y="472" width="214.008" height="12" rx="6" fill="#D9D9D9"/>
<rect width="252" height="12" transform="translate(487 492)" fill="white"/>
<rect x="487" y="492" width="214.008" height="12" rx="6" fill="#D9D9D9"/>
<rect x="487" y="552" width="113" height="46" rx="12" fill="url(#paint1_linear_23_1891)"/>
<rect x="487" y="614" width="252" height="12" rx="6" fill="#F9FAFB"/>
<rect x="487" y="634" width="214.008" height="12" rx="6" fill="#F9FAFB"/>
</g>
<g filter="url(#filter2_d_23_1891)">
<path d="M834 222.5H1140C1142.49 222.5 1144.5 224.515 1144.5 227V673C1144.5 675.485 1142.49 677.5 1140 677.5H834C831.515 677.5 829.5 675.485 829.5 673V227C829.5 224.515 831.515 222.5 834 222.5Z" stroke="#F9FAFB" shape-rendering="crispEdges"/>
<rect x="861" y="254" width="252" height="15" rx="7.5" fill="#D9D9D9"/>
<rect x="861" y="279" width="109.649" height="15" rx="7.5" fill="#D9D9D9"/>
<rect x="861" y="314" width="107.004" height="26" rx="13" fill="#D9D9D9"/>
<rect x="987" y="320" width="54.8244" height="15" rx="7.5" fill="#D9D9D9"/>
<rect x="861" y="360" width="109.649" height="12" rx="6" fill="#F9FAFB"/>
<line x1="861" y1="391.5" x2="1113" y2="391.5" stroke="#F9FAFB"/>
<rect width="252" height="12" transform="translate(861 412)" fill="white"/>
<rect x="861" y="412" width="214.008" height="12" rx="6" fill="#D9D9D9"/>
<rect width="252" height="12" transform="translate(861 432)" fill="white"/>
<rect x="861" y="432" width="214.008" height="12" rx="6" fill="#D9D9D9"/>
<rect width="252" height="12" transform="translate(861 452)" fill="white"/>
<rect x="861" y="452" width="214.008" height="12" rx="6" fill="#D9D9D9"/>
<rect width="252" height="12" transform="translate(861 472)" fill="white"/>
<rect x="861" y="472" width="214.008" height="12" rx="6" fill="#D9D9D9"/>
<rect width="252" height="12" transform="translate(861 492)" fill="white"/>
<rect x="861" y="492" width="214.008" height="12" rx="6" fill="#D9D9D9"/>
<rect x="861" y="552" width="113" height="46" rx="12" fill="url(#paint2_linear_23_1891)"/>
<rect x="861" y="614" width="252" height="12" rx="6" fill="#F9FAFB"/>
<rect x="861" y="634" width="214.008" height="12" rx="6" fill="#F9FAFB"/>
</g>
<g filter="url(#filter3_d_23_1891)">
<path d="M1209 222.5H1515C1517.49 222.5 1519.5 224.515 1519.5 227V673C1519.5 675.485 1517.49 677.5 1515 677.5H1209C1206.51 677.5 1204.5 675.485 1204.5 673V227C1204.5 224.515 1206.51 222.5 1209 222.5Z" stroke="#F9FAFB" shape-rendering="crispEdges"/>
<rect x="1236" y="254" width="252" height="15" rx="7.5" fill="#D9D9D9"/>
<rect x="1236" y="279" width="109.649" height="15" rx="7.5" fill="#D9D9D9"/>
<rect x="1236" y="314" width="107.004" height="26" rx="13" fill="#D9D9D9"/>
<rect x="1362" y="320" width="54.8244" height="15" rx="7.5" fill="#D9D9D9"/>
<rect x="1236" y="360" width="109.649" height="12" rx="6" fill="#F9FAFB"/>
<line x1="1236" y1="391.5" x2="1488" y2="391.5" stroke="#F9FAFB"/>
<rect width="252" height="12" transform="translate(1236 412)" fill="white"/>
<rect x="1236" y="412" width="214.008" height="12" rx="6" fill="#D9D9D9"/>
<rect width="252" height="12" transform="translate(1236 432)" fill="white"/>
<rect x="1236" y="432" width="214.008" height="12" rx="6" fill="#D9D9D9"/>
<rect width="252" height="12" transform="translate(1236 452)" fill="white"/>
<rect x="1236" y="452" width="214.008" height="12" rx="6" fill="#D9D9D9"/>
<rect width="252" height="12" transform="translate(1236 472)" fill="white"/>
<rect x="1236" y="472" width="214.008" height="12" rx="6" fill="#D9D9D9"/>
<rect width="252" height="12" transform="translate(1236 492)" fill="white"/>
<rect x="1236" y="492" width="214.008" height="12" rx="6" fill="#D9D9D9"/>
<rect x="1236" y="552" width="113" height="46" rx="12" fill="url(#paint3_linear_23_1891)"/>
<rect x="1236" y="614" width="252" height="12" rx="6" fill="#F9FAFB"/>
<rect x="1236" y="634" width="214.008" height="12" rx="6" fill="#F9FAFB"/>
</g>
<defs>
<filter id="filter0_d_23_1891" x="78" y="221" width="320" height="460" filterUnits="userSpaceOnUse" color-interpolation-filters="sRGB">
<feFlood flood-opacity="0" result="BackgroundImageFix"/>
<feColorMatrix in="SourceAlpha" type="matrix" values="0 0 0 0 0 0 0 0 0 0 0 0 0 0 0 0 0 0 127 0" result="hardAlpha"/>
<feOffset dy="1"/>
<feGaussianBlur stdDeviation="1"/>
<feComposite in2="hardAlpha" operator="out"/>
<feColorMatrix type="matrix" values="0 0 0 0 0.0627451 0 0 0 0 0.0941176 0 0 0 0 0.156863 0 0 0 0.05 0"/>
<feBlend mode="normal" in2="BackgroundImageFix" result="effect1_dropShadow_23_1891"/>
<feBlend mode="normal" in="SourceGraphic" in2="effect1_dropShadow_23_1891" result="shape"/>
</filter>
<filter id="filter1_d_23_1891" x="453" y="221" width="320" height="460" filterUnits="userSpaceOnUse" color-interpolation-filters="sRGB">
<feFlood flood-opacity="0" result="BackgroundImageFix"/>
<feColorMatrix in="SourceAlpha" type="matrix" values="0 0 0 0 0 0 0 0 0 0 0 0 0 0 0 0 0 0 127 0" result="hardAlpha"/>
<feOffset dy="1"/>
<feGaussianBlur stdDeviation="1"/>
<feComposite in2="hardAlpha" operator="out"/>
<feColorMatrix type="matrix" values="0 0 0 0 0.0627451 0 0 0 0 0.0941176 0 0 0 0 0.156863 0 0 0 0.05 0"/>
<feBlend mode="normal" in2="BackgroundImageFix" result="effect1_dropShadow_23_1891"/>
<feBlend mode="normal" in="SourceGraphic" in2="effect1_dropShadow_23_1891" result="shape"/>
</filter>
<filter id="filter2_d_23_1891" x="827" y="221" width="320" height="460" filterUnits="userSpaceOnUse" color-interpolation-filters="sRGB">
<feFlood flood-opacity="0" result="BackgroundImageFix"/>
<feColorMatrix in="SourceAlpha" type="matrix" values="0 0 0 0 0 0 0 0 0 0 0 0 0 0 0 0 0 0 127 0" result="hardAlpha"/>
<feOffset dy="1"/>
<feGaussianBlur stdDeviation="1"/>
<feComposite in2="hardAlpha" operator="out"/>
<feColorMatrix type="matrix" values="0 0 0 0 0.0627451 0 0 0 0 0.0941176 0 0 0 0 0.156863 0 0 0 0.05 0"/>
<feBlend mode="normal" in2="BackgroundImageFix" result="effect1_dropShadow_23_1891"/>
<feBlend mode="normal" in="SourceGraphic" in2="effect1_dropShadow_23_1891" result="shape"/>
</filter>
<filter id="filter3_d_23_1891" x="1202" y="221" width="320" height="460" filterUnits="userSpaceOnUse" color-interpolation-filters="sRGB">
<feFlood flood-opacity="0" result="BackgroundImageFix"/>
<feColorMatrix in="SourceAlpha" type="matrix" values="0 0 0 0 0 0 0 0 0 0 0 0 0 0 0 0 0 0 127 0" result="hardAlpha"/>
<feOffset dy="1"/>
<feGaussianBlur stdDeviation="1"/>
<feComposite in2="hardAlpha" operator="out"/>
<feColorMatrix type="matrix" values="0 0 0 0 0.0627451 0 0 0 0 0.0941176 0 0 0 0 0.156863 0 0 0 0.05 0"/>
<feBlend mode="normal" in2="BackgroundImageFix" result="effect1_dropShadow_23_1891"/>
<feBlend mode="normal" in="SourceGraphic" in2="effect1_dropShadow_23_1891" result="shape"/>
</filter>
<linearGradient id="paint0_linear_23_1891" x1="247.374" y1="537.142" x2="195.59" y2="624.532" gradientUnits="userSpaceOnUse">
<stop stop-color="#F7C0EC"/>
<stop offset="1" stop-color="#A7BDEA"/>
</linearGradient>
<linearGradient id="paint1_linear_23_1891" x1="622.374" y1="537.142" x2="570.59" y2="624.532" gradientUnits="userSpaceOnUse">
<stop stop-color="#F7C0EC"/>
<stop offset="1" stop-color="#A7BDEA"/>
</linearGradient>
<linearGradient id="paint2_linear_23_1891" x1="996.374" y1="537.142" x2="944.59" y2="624.532" gradientUnits="userSpaceOnUse">
<stop stop-color="#F7C0EC"/>
<stop offset="1" stop-color="#A7BDEA"/>
</linearGradient>
<linearGradient id="paint3_linear_23_1891" x1="1371.37" y1="537.142" x2="1319.59" y2="624.532" gradientUnits="userSpaceOnUse">
<stop stop-color="#F7C0EC"/>
<stop offset="1" stop-color="#A7BDEA"/>
</linearGradient>
</defs>
</svg>
