<svg width="1600" height="900" viewBox="0 0 1600 900" fill="none" xmlns="http://www.w3.org/2000/svg">
<path d="M0 0H1600V900H0V0Z" fill="white"/>
<rect x="221" y="346" width="80" height="80" rx="40" fill="url(#paint0_linear_24_929)"/>
<rect x="321" y="370" width="102" height="12" rx="6" fill="#D9D9D9"/>
<rect x="321" y="390" width="86.6221" height="12" rx="6" fill="#F9FAFB"/>
<rect x="642.333" y="346" width="80" height="80" rx="40" fill="url(#paint1_linear_24_929)"/>
<rect x="742.333" y="370" width="102" height="12" rx="6" fill="#D9D9D9"/>
<rect x="742.333" y="390" width="86.6221" height="12" rx="6" fill="#F9FAFB"/>
<rect x="1063.67" y="346" width="80" height="80" rx="40" fill="url(#paint2_linear_24_929)"/>
<rect x="1163.67" y="370" width="102" height="12" rx="6" fill="#D9D9D9"/>
<rect x="1163.67" y="390" width="86.6221" height="12" rx="6" fill="#F9FAFB"/>
<rect x="221" y="474" width="80" height="80" rx="40" fill="url(#paint3_linear_24_929)"/>
<rect x="321" y="498" width="102" height="12" rx="6" fill="#D9D9D9"/>
<rect x="321" y="518" width="86.6221" height="12" rx="6" fill="#F9FAFB"/>
<rect x="642.333" y="474" width="80" height="80" rx="40" fill="url(#paint4_linear_24_929)"/>
<rect x="742.333" y="498" width="102" height="12" rx="6" fill="#D9D9D9"/>
<rect x="742.333" y="518" width="86.6221" height="12" rx="6" fill="#F9FAFB"/>
<rect x="1063.67" y="474" width="80" height="80" rx="40" fill="url(#paint5_linear_24_929)"/>
<rect x="1163.67" y="498" width="102" height="12" rx="6" fill="#D9D9D9"/>
<rect x="1163.67" y="518" width="86.6221" height="12" rx="6" fill="#F9FAFB"/>
<defs>
<linearGradient id="paint0_linear_24_929" x1="316.84" y1="320.16" x2="221" y2="386" gradientUnits="userSpaceOnUse">
<stop stop-color="#F7C0EC"/>
<stop offset="1" stop-color="#A7BDEA"/>
</linearGradient>
<linearGradient id="paint1_linear_24_929" x1="738.173" y1="320.16" x2="642.333" y2="386" gradientUnits="userSpaceOnUse">
<stop stop-color="#F7C0EC"/>
<stop offset="1" stop-color="#A7BDEA"/>
</linearGradient>
<linearGradient id="paint2_linear_24_929" x1="1159.51" y1="320.16" x2="1063.67" y2="386" gradientUnits="userSpaceOnUse">
<stop stop-color="#F7C0EC"/>
<stop offset="1" stop-color="#A7BDEA"/>
</linearGradient>
<linearGradient id="paint3_linear_24_929" x1="316.84" y1="448.16" x2="221" y2="514" gradientUnits="userSpaceOnUse">
<stop stop-color="#F7C0EC"/>
<stop offset="1" stop-color="#A7BDEA"/>
</linearGradient>
<linearGradient id="paint4_linear_24_929" x1="738.173" y1="448.16" x2="642.333" y2="514" gradientUnits="userSpaceOnUse">
<stop stop-color="#F7C0EC"/>
<stop offset="1" stop-color="#A7BDEA"/>
</linearGradient>
<linearGradient id="paint5_linear_24_929" x1="1159.51" y1="448.16" x2="1063.67" y2="514" gradientUnits="userSpaceOnUse">
<stop stop-color="#F7C0EC"/>
<stop offset="1" stop-color="#A7BDEA"/>
</linearGradient>
</defs>
</svg>
