<svg width="1600" height="900" viewBox="0 0 1600 900" fill="none" xmlns="http://www.w3.org/2000/svg">
<g clip-path="url(#clip0_23_2066)">
<path d="M1600 0H0V900H1600V0Z" fill="white"/>
<mask id="mask0_23_2066" style="mask-type:luminance" maskUnits="userSpaceOnUse" x="192" y="392" width="374" height="116">
<path d="M560.333 392H197C194.239 392 192 394.239 192 397V503C192 505.761 194.239 508 197 508H560.333C563.094 508 565.333 505.761 565.333 503V397C565.333 394.239 563.094 392 560.333 392Z" fill="white"/>
</mask>
<g mask="url(#mask0_23_2066)">
<path d="M559.333 392H198C194.686 392 192 394.686 192 398C192 401.314 194.686 404 198 404H559.333C562.647 404 565.333 401.314 565.333 398C565.333 394.686 562.647 392 559.333 392Z" fill="#D9D9D9"/>
<path d="M530.834 412H225.786C222.472 412 219.786 414.686 219.786 418C219.786 421.314 222.472 424 225.786 424H530.834C534.148 424 536.834 421.314 536.834 418C536.834 414.686 534.148 412 530.834 412Z" fill="#D9D9D9"/>
<path d="M453.888 432H303.445C300.131 432 297.445 434.686 297.445 438C297.445 441.314 300.131 444 303.445 444H453.888C457.202 444 459.888 441.314 459.888 438C459.888 434.686 457.202 432 453.888 432Z" fill="#D9D9D9"/>
<path d="M339.667 488C339.667 476.954 330.713 468 319.667 468C308.621 468 299.667 476.954 299.667 488C299.667 499.046 308.621 508 319.667 508C330.713 508 339.667 499.046 339.667 488Z" fill="url(#paint0_linear_23_2066)"/>
<path d="M391.659 483H354.667C351.906 483 349.667 485.239 349.667 488C349.667 490.761 351.906 493 354.667 493H391.659C394.421 493 396.659 490.761 396.659 488C396.659 485.239 394.421 483 391.659 483Z" fill="#D9D9D9"/>
</g>
<mask id="mask1_23_2066" style="mask-type:luminance" maskUnits="userSpaceOnUse" x="613" y="392" width="374" height="116">
<path d="M981.666 392H618.333C615.572 392 613.333 394.239 613.333 397V503C613.333 505.761 615.572 508 618.333 508H981.666C984.427 508 986.666 505.761 986.666 503V397C986.666 394.239 984.427 392 981.666 392Z" fill="white"/>
</mask>
<g mask="url(#mask1_23_2066)">
<path d="M980.666 392H619.333C616.019 392 613.333 394.686 613.333 398C613.333 401.314 616.019 404 619.333 404H980.666C983.98 404 986.666 401.314 986.666 398C986.666 394.686 983.98 392 980.666 392Z" fill="#D9D9D9"/>
<path d="M952.168 412H647.12C643.806 412 641.12 414.686 641.12 418C641.12 421.314 643.806 424 647.12 424H952.168C955.482 424 958.168 421.314 958.168 418C958.168 414.686 955.482 412 952.168 412Z" fill="#D9D9D9"/>
<path d="M875.222 432H724.779C721.465 432 718.779 434.686 718.779 438C718.779 441.314 721.465 444 724.779 444H875.222C878.536 444 881.222 441.314 881.222 438C881.222 434.686 878.536 432 875.222 432Z" fill="#D9D9D9"/>
<path d="M761 488C761 476.954 752.046 468 741 468C729.954 468 721 476.954 721 488C721 499.046 729.954 508 741 508C752.046 508 761 499.046 761 488Z" fill="url(#paint1_linear_23_2066)"/>
<path d="M812.992 483H776C773.239 483 771 485.239 771 488C771 490.761 773.239 493 776 493H812.992C815.754 493 817.992 490.761 817.992 488C817.992 485.239 815.754 483 812.992 483Z" fill="#D9D9D9"/>
</g>
<mask id="mask2_23_2066" style="mask-type:luminance" maskUnits="userSpaceOnUse" x="1034" y="392" width="375" height="116">
<path d="M1403 392H1039.67C1036.91 392 1034.67 394.239 1034.67 397V503C1034.67 505.761 1036.91 508 1039.67 508H1403C1405.76 508 1408 505.761 1408 503V397C1408 394.239 1405.76 392 1403 392Z" fill="white"/>
</mask>
<g mask="url(#mask2_23_2066)">
<path d="M1402 392H1040.67C1037.36 392 1034.67 394.686 1034.67 398C1034.67 401.314 1037.36 404 1040.67 404H1402C1405.32 404 1408 401.314 1408 398C1408 394.686 1405.32 392 1402 392Z" fill="#D9D9D9"/>
<path d="M1373.5 412H1068.45C1065.14 412 1062.45 414.686 1062.45 418C1062.45 421.314 1065.14 424 1068.45 424H1373.5C1376.81 424 1379.5 421.314 1379.5 418C1379.5 414.686 1376.81 412 1373.5 412Z" fill="#D9D9D9"/>
<path d="M1296.55 432H1146.11C1142.8 432 1140.11 434.686 1140.11 438C1140.11 441.314 1142.8 444 1146.11 444H1296.55C1299.87 444 1302.55 441.314 1302.55 438C1302.55 434.686 1299.87 432 1296.55 432Z" fill="#D9D9D9"/>
<path d="M1182.33 488C1182.33 476.954 1173.38 468 1162.33 468C1151.28 468 1142.33 476.954 1142.33 488C1142.33 499.046 1151.28 508 1162.33 508C1173.38 508 1182.33 499.046 1182.33 488Z" fill="url(#paint2_linear_23_2066)"/>
<path d="M1234.32 483H1197.33C1194.57 483 1192.33 485.239 1192.33 488C1192.33 490.761 1194.57 493 1197.33 493H1234.32C1237.08 493 1239.32 490.761 1239.32 488C1239.32 485.239 1237.08 483 1234.32 483Z" fill="#D9D9D9"/>
</g>
</g>
<defs>
<linearGradient id="paint0_linear_23_2066" x1="347.587" y1="455.08" x2="299.667" y2="488" gradientUnits="userSpaceOnUse">
<stop stop-color="#F7C0EC"/>
<stop offset="1" stop-color="#A7BDEA"/>
</linearGradient>
<linearGradient id="paint1_linear_23_2066" x1="768.92" y1="455.08" x2="721" y2="488" gradientUnits="userSpaceOnUse">
<stop stop-color="#F7C0EC"/>
<stop offset="1" stop-color="#A7BDEA"/>
</linearGradient>
<linearGradient id="paint2_linear_23_2066" x1="1190.25" y1="455.08" x2="1142.33" y2="488" gradientUnits="userSpaceOnUse">
<stop stop-color="#F7C0EC"/>
<stop offset="1" stop-color="#A7BDEA"/>
</linearGradient>
<clipPath id="clip0_23_2066">
<rect width="1600" height="900" fill="white"/>
</clipPath>
</defs>
</svg>
