<svg width="100" height="100" viewBox="0 0 100 100" fill="none" xmlns="http://www.w3.org/2000/svg">
<mask id="mask0_51_914" style="mask-type:alpha" maskUnits="userSpaceOnUse" x="0" y="0" width="100" height="100">
<circle cx="50" cy="50" r="50" fill="#D9D9D9"/>
</mask>
<g mask="url(#mask0_51_914)">
<path fill-rule="evenodd" clip-rule="evenodd" d="M-14.1888 95.3128C-15.3647 94.699 -16.5129 94.0321 -17.6428 93.3379C-18.4387 92.8619 -17.7341 91.6627 -16.918 92.096C-16.5007 92.3176 -16.085 92.5415 -15.6678 92.7617C-15.9961 92.4789 -16.3005 92.1711 -16.5733 91.8355L-16.5545 91.8168C-17.6065 90.8742 -16.2552 89.0957 -15.0588 89.87C-14.0037 90.6348 -12.9389 91.4152 -11.7277 91.9188C-9.21914 92.9826 -6.45211 93.1586 -3.7596 93.1893C-2.77427 93.1153 -1.83314 93.286 -0.87709 93.4762C-1.25191 91.9725 -2.18994 90.837 -2.68748 89.3807C-3.05461 87.9103 -0.932191 86.9088 -0.180022 88.3221C0.00457641 88.6692 0.180566 89.0203 0.352652 89.3731C1.97845 90.8519 4.69324 90.7216 6.33293 92.3094C7.26688 93.1383 7.72399 94.2631 7.9045 95.3919C8.02708 96.1585 7.83652 96.927 8.30002 97.6059C10.5408 100.775 14.0814 105.785 15.8795 109.273C17.1527 100.985 20.552 90.7329 24.0639 83.1542C25.2252 80.7305 26.5538 78.3621 28.2978 76.3077C28.1001 75.6225 28.7979 74.4063 29.2416 74.7807C30.6074 73.1123 33.0216 72.6804 34.9629 71.8509C37.5834 70.7304 39.7576 68.4012 40.8264 65.754C42.1996 60.7129 45.5801 60.0726 50.2685 60.2954C54.7553 60.2897 58.075 62.2088 59.054 66.7762C61.0429 70.2429 65.7389 69.6696 69.1174 70.5874C71.5934 71.153 73.9962 72.0275 76.2798 73.1377C78.8202 70.728 87.9187 80.8412 88.7457 83.4439C88.2589 83.5383 87.775 83.6519 87.2955 83.7903C86.8684 83.9138 87.0477 84.5588 87.4785 84.4556C88.0145 84.3268 88.5539 84.2382 89.0959 84.1767C89.1124 84.2286 89.1269 84.2801 89.1377 84.331C89.1985 84.3268 89.2592 84.3217 89.3201 84.3175C89.1852 84.3878 89.0553 84.4693 88.9288 84.5744C88.623 84.8283 89.0211 85.3184 89.3461 85.1161C89.6523 84.8869 90.0533 84.9232 90.4205 84.8462C90.4424 85.6014 93.1371 84.7566 93.5556 84.5063C95.416 84.2736 97.3298 84.5233 99.0665 83.6262C101.377 83.1395 103.705 82.6014 105.99 81.9816C106.595 82.2174 107.164 83.0612 106.683 83.6804C106.413 83.9622 106.76 84.4223 107.101 84.222C108.242 83.5503 109.124 82.5017 109.873 81.3721C110.225 81.0167 110.85 81.0932 111.323 80.9457C111.387 81.0594 111.424 81.1861 111.423 81.316C113.431 81.6464 111.999 83.8387 110.99 84.5218C111.525 84.8704 111.545 85.5529 111.498 86.1229C111.612 86.3259 111.65 86.5776 111.551 86.8051C111.174 87.6749 110.357 88.4074 109.736 89.1122C109.051 89.8904 108.44 90.673 107.606 91.3039C104.428 93.7269 100.592 95.0815 96.6566 95.6112C95.2594 95.8258 93.2496 96.1543 92.3844 97.3358C92.5967 98.7379 92.9864 100.083 93.34 101.45C93.8345 103.265 93.8008 105.165 93.8074 107.015C93.8765 106.96 94.0092 106.971 94.0289 107.077C94.144 107.844 94.2295 108.628 94.6957 109.273C95.1044 110.471 95.3763 111.75 95.5291 113.009C96.1413 118.978 96.2874 125.123 94.9073 130.999C94.3747 133.179 93.5086 135.251 92.3284 137.158C91.9765 137.727 91.4108 137.894 90.9028 137.782C89.2026 138.665 87.0608 138.949 85.2283 138.724C78.9807 136.956 81.1576 141.214 72.398 139.91C57.278 137.984 41.9977 141.769 26.9099 139.547C26.5383 142.417 21.6738 141.594 19.984 140.38C14.9174 136.614 12.4017 124.689 9.859 118.64C8.11117 113.871 5.18446 105.426 1.35164 102.227C0.202374 101.328 -1.18682 100.855 -2.57681 100.473C-7.76439 99.1359 -12.972 97.8718 -18.1694 96.5722C-19.0508 96.3551 -18.8924 94.8519 -17.9499 94.9483C-16.699 95.0763 -15.4439 95.1922 -14.1888 95.3128Z" fill="white"/>
<path fill-rule="evenodd" clip-rule="evenodd" d="M101.294 94.4192C101.645 94.3756 101.989 94.2505 102.331 94.1518C102.854 93.9991 103.366 93.8211 103.87 93.6179C104.91 93.2013 105.919 92.7087 106.865 92.106C108.393 91.1314 109.743 89.8823 110.761 88.3785L110.831 88.2736C111.412 87.3881 112.485 85.4219 111.282 84.7496C112.057 84.1021 112.79 82.9392 112.748 82.0415C112.69 80.7718 111.133 80.7891 110.328 81.3274C109.801 81.6799 109.407 82.1735 109.01 82.6592C108.572 83.1987 108.104 83.713 107.617 84.2077C107.488 84.3386 107.357 84.4669 107.224 84.5931L107.091 84.7186C107.112 84.6693 107.13 84.6188 107.146 84.567C107.415 83.7302 107.094 82.6408 106.258 82.2573C105.745 82.0226 105.214 82.1659 104.717 82.3652L104.641 82.3962C103.973 82.6728 103.297 82.9174 102.601 83.1137C99.7656 83.9139 96.8061 84.0471 93.9005 84.4466C92.7812 84.6016 91.6412 84.7966 90.5277 85.0836C90.1029 83.2801 89.0617 81.5514 87.9321 80.129C82.5227 73.3247 73.6016 71.0759 65.4404 69.6202C64.6965 69.4882 64.08 70.4731 63.6472 70.2401C62.8264 69.7992 62.1043 69.1747 61.4706 68.4963C60.1194 67.0486 59.1608 65.3462 58.0347 63.7332C57.4779 62.9365 56.1967 63.6494 56.7133 64.5047L56.9664 64.9226C58.0084 66.6347 59.1623 68.3992 60.6567 69.7269C61.4511 70.4318 62.3328 70.9886 63.3407 71.3363C64.1041 71.5993 65.1752 71.8209 66.011 71.5659L66.1113 71.4198C66.0781 71.4687 66.0446 71.5173 66.011 71.5659C63.8298 74.7263 61.093 77.4012 58.2092 79.9257C55.2984 82.4724 52.1582 84.7529 48.9992 86.9827L48.7359 87.1684C43.5895 83.4146 39.242 78.5183 36.1918 72.9242C36.8311 72.8472 37.4637 72.4374 38.0101 72.132C38.6679 71.7624 39.2867 71.3215 39.7688 70.7337C40.8193 69.4537 40.6826 67.804 40.8721 66.2508C40.8835 66.1543 40.7561 66.1302 40.6976 66.1784C40.1282 66.6514 39.9284 67.4263 39.6908 68.0956C39.429 68.8315 39.1328 69.4377 38.5324 69.9553C37.9734 70.4376 37.2915 70.7922 36.6291 71.1079C36.2875 71.2699 34.5917 71.6862 34.3985 72.031C31.4688 71.3433 28.6149 72.5315 26.444 74.5359C24.3466 76.4726 22.8071 78.9901 21.4479 81.4756C19.998 84.1274 18.8098 86.8917 17.7858 89.733C16.748 92.6169 15.9524 95.5638 15.5151 98.5991C15.1459 101.158 14.9195 103.757 14.773 106.345L14.7551 106.668C12.5877 103.267 10.3663 99.9009 8.09901 96.5648C8.61446 95.1884 8.04391 93.7832 7.07844 92.7202C6.00851 91.5435 4.52873 90.997 3.11325 90.361L2.9272 90.2769C2.24496 89.9657 1.56498 89.623 0.975674 89.1568C0.408562 88.7068 -0.00816362 88.0869 -0.605123 87.6724C-1.47301 87.0686 -3.04806 87.1972 -3.08824 88.5162C-3.1089 89.2407 -2.7978 90.035 -2.5131 90.6859C-2.19051 91.4219 -1.75541 92.0888 -1.23881 92.7018C-1.21494 92.7304 -1.18886 92.7529 -1.16233 92.7708L-1.14239 92.7833C-1.85645 92.9016 -2.57624 92.9969 -3.30982 93.0301C-4.78959 93.0979 -6.28543 92.9888 -7.7342 92.6766C-9.21742 92.3574 -10.6547 91.8386 -11.9887 91.1153C-13.1287 90.4977 -14.1848 89.6987 -15.4798 89.5104C-15.5991 89.492 -15.7197 89.4806 -15.8437 89.4737C-16.0503 89.4622 -16.2569 89.7056 -16.1754 89.9098C-16.1307 90.0224 -16.0836 90.1338 -16.0319 90.2463C-15.5842 91.2323 -14.8975 92.189 -14.041 92.915L-13.9747 92.9704C-14.2767 92.866 -14.574 92.7489 -14.8668 92.6169C-16.5876 91.842 -18.1489 90.671 -19.9937 90.2003C-20.081 90.1774 -20.1694 90.1567 -20.2578 90.1372C-20.8283 90.0144 -21.1291 90.6343 -20.7939 91.059C-20.7399 91.1279 -20.686 91.1956 -20.6297 91.2634C-19.8066 92.2851 -18.8985 93.2333 -17.8975 94.0851C-17.5542 94.3767 -17.2006 94.6591 -16.8402 94.929C-16.6883 95.0434 -16.5355 95.1553 -16.3812 95.2653L-16.3052 95.3192C-16.4854 95.1919 -16.6634 95.0622 -16.8402 94.929C-17.9698 94.5868 -19.0833 94.1816 -20.1728 93.7328C-20.6056 93.5547 -20.9419 93.9933 -20.9878 94.3538C-21.1417 95.5616 -19.8008 96.4352 -18.9283 97.016C-18.0536 97.5993 -17.0904 98.0424 -16.1043 98.3982C-14.2082 99.0834 -12.2168 99.3945 -10.2285 99.6734L-9.26277 99.8079C-5.4403 100.342 -1.44788 100.981 1.29482 103.956C2.83199 105.623 3.87208 107.694 4.82377 109.731C5.77431 111.767 6.60891 113.856 7.40103 115.957C8.22185 118.131 8.93705 120.346 9.69703 122.542C10.395 124.558 11.2287 126.549 12.0544 128.52L12.1847 128.83C13.9377 133.018 16.0317 136.963 18.9499 140.46C19.4309 141.037 20.2081 140.218 19.7638 139.646C16.7113 135.71 14.5875 131.067 12.8345 126.435C12.0366 124.327 11.3685 122.169 10.6017 120.049L10.1453 118.79C9.53603 117.112 8.92144 115.436 8.28039 113.771C7.46876 111.664 6.57677 109.583 5.55619 107.57L5.44792 107.358C4.44873 105.415 3.26162 103.5 1.62774 102.03C-1.31312 99.3833 -5.2264 98.7482 -9.01004 98.2452L-10.2003 98.0884C-11.8 97.8759 -13.4042 97.6411 -14.9597 97.2134C-15.8574 96.9679 -16.7345 96.6532 -17.5588 96.2193C-17.8871 96.0471 -18.2074 95.8577 -18.5174 95.6511C-17.6334 95.9106 -16.7368 96.1228 -15.8241 96.2893C-15.3776 96.3708 -14.9356 96.4317 -14.4948 96.4742C-13.3594 96.5866 -12.2332 96.582 -11.0703 96.5213C-10.9716 96.5154 -10.9395 96.3605 -11.0451 96.341C-11.8549 96.197 -12.6657 96.0169 -13.4732 95.8215L-13.7153 95.7624C-13.7199 95.6281 -13.7727 95.4857 -13.8829 95.3503C-14.2847 94.8613 -15.0481 94.6109 -15.5774 94.2654C-16.1318 93.9037 -16.6691 93.5135 -17.1811 93.0955C-17.6495 92.7134 -18.0995 92.3092 -18.5323 91.8868L-18.6621 91.7593C-18.619 91.802 -18.5757 91.8445 -18.5323 91.8868C-17.3636 92.4265 -16.2558 93.1186 -15.0355 93.5457C-14.0654 93.8866 -13.0483 94.1162 -12.022 94.1977L-11.9583 94.2027L-11.8946 94.2069C-10.8235 94.2838 -9.74551 94.2528 -8.6905 94.4847C-8.57225 94.5111 -8.53552 94.3527 -8.64114 94.3079C-9.56298 93.9245 -10.5216 93.7764 -11.4905 93.5973C-11.5111 93.5215 -11.5639 93.4537 -11.6558 93.4101L-11.9037 93.2918C-12.6419 92.9372 -13.33 92.5793 -13.9437 92.0038C-14.4856 91.4953 -14.9367 90.9007 -15.2754 90.2416C-13.9196 90.539 -12.7292 91.5664 -11.4962 92.1439C-10.153 92.7741 -8.73181 93.2265 -7.27156 93.4837L-7.10519 93.5122C-4.37633 93.9674 -1.0948 93.9094 1.34991 92.4906C1.42797 92.4447 1.37173 92.3403 1.29137 92.3528C0.597975 92.4665 -0.0885283 92.6008 -0.775032 92.7202C-0.640705 92.5973 -0.58101 92.3769 -0.73599 92.2001C-1.35258 91.4936 -1.84015 90.6859 -2.15189 89.8022L-2.21151 89.6294C-2.35508 89.2195 -2.59759 88.5829 -2.35008 88.2131C-2.11359 87.8607 -1.55681 87.9089 -1.22389 88.0582C-0.531646 88.3704 -0.0712988 89.15 0.511885 89.6206C1.14788 90.1349 1.87111 90.516 2.61157 90.857L2.76793 90.928C4.04867 91.5041 5.41706 91.9891 6.42408 93.006C6.96594 93.5525 7.43203 94.2355 7.58815 95.0013C7.65933 95.3525 7.65933 95.7142 7.56519 96.062C7.49057 96.3341 7.33444 96.5018 7.42398 96.7784C7.54108 97.1354 7.95551 97.5624 8.16904 97.8804C8.41701 98.2479 8.66383 98.6163 8.91065 98.9848C9.40314 99.7218 9.89333 100.461 10.3835 101.199C11.3639 102.678 12.334 104.163 13.296 105.654C13.609 106.139 13.921 106.624 14.232 107.111L14.6977 107.841L14.9438 108.225L15.3635 108.885C15.3486 108.946 15.3498 109.01 15.3693 109.066C15.4408 109.27 15.5748 109.41 15.7414 109.511L15.7711 109.528C18.2209 113.4 20.6317 117.298 23.0666 121.179C23.1963 122.364 23.318 123.55 23.4237 124.736C23.6636 127.42 23.8278 130.111 23.8806 132.805C23.9058 134.109 23.8013 135.421 23.7451 136.724C23.7175 137.346 23.6799 137.967 23.6306 138.588L23.5944 139.028C23.5459 139.633 23.5184 140.233 23.7359 140.81C23.9288 141.316 24.5166 141.43 24.8644 141.044C29.4024 140.862 33.9439 140.723 38.4854 140.637C46.6144 140.48 54.7468 140.505 62.8769 140.662C66.9604 140.741 71.045 140.852 75.1272 140.99C77.1385 141.057 79.151 141.151 81.1634 141.178C82.2477 141.193 83.9541 140.798 84.0416 139.579L84.0438 139.541C84.1792 139.578 84.3193 139.608 84.4628 139.63C84.5267 139.64 84.588 139.637 84.6447 139.623L84.6729 139.616C86.2891 140.109 88.3335 139.406 89.8693 138.996L89.9961 138.963C91.4621 138.58 92.6399 138.034 93.6008 136.819C95.2826 134.692 95.8566 131.836 96.1551 129.204C96.4352 126.726 96.4513 124.203 96.1104 121.73C96.3113 119.715 96.115 117.636 95.8865 115.633C95.774 114.642 95.642 113.653 95.4836 112.668C95.3952 112.118 95.2792 111.574 95.161 111.031C95.1138 110.814 95.0745 110.58 95.0146 110.354L94.9876 110.258C95.1713 110.282 95.3722 110.242 95.5662 110.135C96.0277 109.882 96.162 109.368 96.1701 108.877C96.1953 107.396 96.0185 105.873 95.8624 104.401C95.7051 102.932 95.4893 101.456 95.2069 100.005L95.1338 99.6312C94.9198 98.5458 94.675 97.4252 94.2437 96.4052C95.8635 96.1298 97.4788 95.8371 99.0504 95.3387C99.8172 95.0942 100.573 94.7901 101.294 94.4192ZM16.748 109.831C16.7733 109.837 16.7974 109.844 16.8215 109.851C17.469 110.032 18.1233 110.186 18.7754 110.351C19.9027 110.635 21.0048 110.952 22.0529 111.444C22.2725 114.215 22.598 116.978 22.9074 119.741L22.969 120.294C22.4938 119.412 22.007 118.538 21.4985 117.673C19.9498 115.038 18.3656 112.424 16.748 109.831ZM94.5927 110.106C94.5893 110.435 94.6581 110.777 94.6949 111.094C94.7546 111.608 94.8028 112.125 94.8636 112.639C94.9876 113.672 95.0932 114.707 95.1702 115.744C95.2195 116.407 95.2517 117.072 95.2804 117.736C94.6294 115.304 93.7673 112.924 92.9476 110.541C93.0846 110.526 93.2247 110.493 93.3692 110.454L93.6124 110.389C93.7558 110.352 94.221 110.237 94.5927 110.106ZM14.6977 107.841L14.6931 107.95C14.6759 108.336 14.9078 108.555 15.189 108.611C15.026 108.354 14.8618 108.097 14.6977 107.841ZM89.1799 89.5047C88.4945 89.5654 87.823 89.7114 87.1824 89.9639L87.1206 89.988C86.6468 90.1709 85.954 90.4007 85.799 90.9064C85.7554 91.0499 85.8725 91.1681 86.0068 91.1797C86.5211 91.221 87.1273 90.6698 87.6037 90.4838C88.1341 90.2772 88.6897 90.1234 89.2522 90.0419C90.5162 89.857 91.8341 89.9972 93.0234 90.4576C93.0934 90.4851 93.1371 90.3736 93.0739 90.3403C91.8754 89.6883 90.5426 89.3842 89.1799 89.5047ZM103.703 92.7879C103.782 92.7179 103.862 92.6444 103.94 92.571C104.555 91.9888 105.1 91.3092 105.504 90.5625L105.61 90.3604C105.939 89.7241 106.342 88.8174 105.57 88.3589C105.108 88.0847 104.553 88.1534 104.038 88.3199C104.005 88.3302 103.972 88.3418 103.939 88.3532C103.709 88.4336 103.487 88.53 103.29 88.6218C102.432 89.0156 101.676 89.5884 100.884 90.0937C100.025 90.6412 99.178 90.9914 98.1874 91.1963L98.0941 91.2151C97.1643 91.3989 96.1563 91.5171 95.5077 92.2816C95.3447 92.4746 95.4939 92.8361 95.7752 92.7408C97.5683 92.1359 99.466 92.0027 101.112 91.0096C101.794 90.5987 102.439 90.1269 103.136 89.7377C103.506 89.5309 103.887 89.3501 104.294 89.2261L104.516 89.1606C104.647 89.1226 104.802 89.0851 104.906 89.1224C105.105 89.1913 105.042 89.2977 104.98 89.4835L104.974 89.5023C104.491 90.9971 103.113 92.2483 101.837 93.076C101.544 93.2666 101.244 93.4412 100.939 93.6031C98.8718 94.7048 96.559 95.2176 94.2874 95.8263C93.4118 96.0707 92.829 96.2388 92.5389 96.3307C92.0545 96.2904 91.5023 96.4616 91.1372 96.6659C90.7825 96.8644 90.4966 97.1308 90.2808 97.4443C90.2808 97.4443 90.073 97.6176 90.0351 97.8862C89.9261 98.1353 89.8526 98.4039 89.8159 98.6841C89.7952 98.8483 89.8365 98.9744 89.9146 99.064C89.6798 102.668 90.6532 106.251 91.7507 109.676L91.8595 110.014L91.9293 110.228C93.1129 113.859 94.471 117.464 95.0772 121.25C95.4824 123.779 95.4698 126.397 95.1724 128.937L95.1515 129.112C94.8585 131.514 94.2948 134.209 92.7674 136.142C91.9883 137.129 91.0652 137.567 89.8851 137.885L89.8205 137.902C88.7528 138.183 87.6507 138.582 86.5498 138.702C85.5281 138.813 84.6717 138.434 83.7521 138.078L83.751 138.077C81.8143 136.363 80.935 133.867 80.2852 131.348C78.6011 124.83 78.81 118.063 79.7651 111.45C80.2634 107.994 80.9407 104.569 81.6157 101.144C81.9532 99.4326 82.3172 97.7243 82.6191 96.0069L82.7984 94.9962C82.8973 94.4346 82.993 93.8727 83.0748 93.308C83.185 92.5492 83.2183 91.803 83.2562 91.0395C84.1838 89.5024 85.5304 88.2361 87.0905 87.3281C88.2075 86.6771 89.39 86.226 90.6103 85.8988C94.0991 84.9586 97.9024 85.0252 101.413 84.3019C102.592 84.0593 103.712 83.6989 104.831 83.2672L104.983 83.2079C105.496 83.0081 106.02 82.8968 106.275 83.5018C106.456 83.9323 106.348 84.38 106.076 84.7416C105.409 85.6279 104.068 86.0389 103.059 86.358C102.452 86.5509 101.832 86.7035 101.205 86.8172C100.578 86.9308 99.9493 86.9595 99.3477 87.1811C99.1158 87.2661 99.0699 87.6346 99.3477 87.6999C100.11 87.8779 100.877 87.7253 101.635 87.5772C102.467 87.4129 103.287 87.18 104.083 86.8849C104.23 86.8307 104.382 86.7736 104.537 86.7129L104.654 86.6668C104.533 86.7541 104.413 86.8402 104.291 86.9263C104.259 86.9492 104.278 87.01 104.321 86.9951C106.194 86.2962 107.899 85.0353 109.219 83.5433L109.285 83.4686C109.75 82.9358 110.809 81.324 111.703 81.7728C112.541 82.1938 111.112 83.8167 110.568 84.4802L110.505 84.558C109.887 84.574 109.289 84.9585 108.789 85.2685C107.92 85.807 107.012 86.2708 106.086 86.7046C104.247 87.5691 102.295 88.1788 100.475 89.0867C100.451 89.0995 100.469 89.1303 100.492 89.127C101.651 88.9421 102.796 88.647 103.916 88.2809L103.966 88.2653L104.015 88.2487C104.715 88.0191 105.405 87.7597 106.083 87.483C106.837 87.1754 107.574 86.8299 108.289 86.4384C108.937 86.0848 109.656 85.4477 110.406 85.3535C110.487 85.3432 110.558 85.3419 110.62 85.3478C111.482 85.4201 110.769 86.8482 110.528 87.2752C110.134 87.9767 109.659 88.6241 109.114 89.2154C108.008 90.4162 106.668 91.3679 105.219 92.1083C104.724 92.3609 104.218 92.5836 103.703 92.7879Z" fill="black"/>
<path fill-rule="evenodd" clip-rule="evenodd" d="M52.5785 17.5719C35.1783 16.7162 27.3263 28.9674 26.8184 34.4395C26.4659 38.2379 28.7101 42.6161 28.7101 46.0103C28.7101 47.7428 26.5888 51.4624 27.5764 53.9876C29.7744 59.6081 34.4284 65.8457 40.359 65.8457C46.2896 65.8457 54.0079 67.4858 60.5609 58.103C61.1758 57.2227 68.9528 52.219 69.7083 47.4644C71.5903 35.6211 64.9943 18.1825 52.5785 17.5719Z" fill="white"/>
<path fill-rule="evenodd" clip-rule="evenodd" d="M53.3984 9.94802C52.7762 9.23626 51.7257 8.95155 50.7924 9.00666C49.4366 9.08702 48.2575 9.92391 46.9086 9.9859C45.4944 10.0513 44.1294 9.56114 42.7116 9.78844C41.8426 9.9285 40.9816 10.3314 40.4248 11.0111C38.4962 10.4589 36.4022 11.1902 35.1739 12.787C33.6585 12.5517 32.01 13.5551 31.5462 15.0153C29.621 15.0773 27.8037 16.6236 27.589 18.5615C26.8198 18.7647 26.1517 19.2951 25.7419 19.9965C25.2655 20.8092 25.1863 21.7414 25.2724 22.6575C24.3666 23.1202 23.9063 24.1143 23.7857 25.1659C22.958 25.7835 22.5987 26.8936 22.7674 27.9418C22.1338 28.2988 21.8065 29.1299 21.81 29.8715C21.8135 30.5638 21.997 31.1769 21.7387 31.845C21.5086 32.4399 21.426 32.9358 21.5526 33.559L21.5655 33.6198C21.5879 33.7214 21.6067 33.8188 21.6236 33.9149C21.4522 34.0653 21.3072 34.2538 21.1984 34.4731C20.8014 35.2744 20.8605 36.1883 21.1632 37.001C21.0306 37.5185 21.0475 38.0652 21.2435 38.5626C20.8765 39.0912 20.6835 39.7396 20.7402 40.4124C20.8038 41.1656 21.1477 41.84 21.6693 42.3387C21.5304 43.3675 21.9487 44.4792 22.7051 45.2035C22.5978 45.8194 22.6904 46.465 23.0274 47.0488C23.2675 47.465 23.5908 47.7749 23.9638 47.991C23.9515 48.3346 23.998 48.686 24.1123 49.0381C24.2711 49.5267 24.54 49.9768 24.8938 50.3393C24.6827 51.6892 25.4908 53.187 26.9133 53.5657C27.0328 53.5975 27.1468 53.6121 27.256 53.6144C27.3973 54.9126 27.7059 56.1929 28.1837 57.4087C29.3983 60.5048 31.607 63.2117 34.4874 64.9005C35.912 65.735 37.5124 66.3068 39.146 66.5455C40.3215 66.7177 41.4523 66.6753 42.6323 66.5582C44.1133 66.4101 45.6012 66.1885 47.0407 65.8074L47.2723 65.7458C47.8691 65.5859 48.4983 65.4015 49.0153 65.0795C49.5939 64.7191 49.8946 64.1634 50.0277 63.5091C50.102 63.1449 49.8713 62.7532 49.4726 62.7456L49.447 62.7457C49.3597 62.7475 49.2732 62.7442 49.1856 62.7387L49.1197 62.7342H49.1163C49.1117 62.733 49.1093 62.733 49.1048 62.733C49.0658 62.7273 49.0279 62.7158 48.99 62.7101C48.5514 62.6362 48.1678 62.7095 47.7559 62.8465L47.7043 62.8639C47.0109 63.1027 46.3232 63.3242 45.6069 63.4884C44.8664 63.6572 44.1168 63.7915 43.3649 63.8971L43.2902 63.9063L43.2673 63.9097L43.2558 63.9109C43.2535 63.9109 43.2512 63.9109 43.2489 63.912L43.0273 63.9396C42.8527 63.9602 42.6783 63.9786 42.5039 63.997C42.1824 64.0291 41.861 64.0544 41.5395 64.0727C35.9913 64.385 31.3315 60.0169 29.9252 54.7797C29.4155 52.8843 29.3822 50.9936 29.5326 49.1017C29.5808 48.9639 29.6095 48.8112 29.6084 48.6436C29.6084 48.5564 29.6037 48.4703 29.598 48.383C29.7851 46.5531 30.1099 44.7221 30.3132 42.8853C30.5508 40.7397 30.6829 38.5815 30.6347 36.422C30.6106 35.3555 30.4969 34.2994 30.3477 33.2433L30.2937 32.8639C30.9682 32.7322 31.5952 32.4124 32.0945 31.9494C33.178 32.5751 34.5802 32.6305 35.6497 31.9699C36.8482 32.7215 38.5227 32.7896 39.7296 32.0548C40.459 32.5755 41.3781 32.8002 42.2803 32.6025C42.6862 32.5137 43.0897 32.3214 43.4352 32.0552C43.6819 32.0987 43.9318 32.1155 44.1804 32.1026L44.2317 32.1313C44.8046 32.4332 45.4392 32.6319 46.0923 32.6098C46.5758 32.5935 47.0739 32.4981 47.5351 32.3176C48.0277 32.6149 48.5668 32.8179 49.1435 32.8907C49.9858 32.9969 50.8948 32.8105 51.5953 32.3327C52.8755 33.062 54.45 33.1742 55.8318 32.6843C56.1148 33.1635 56.5063 33.5768 56.9649 33.8954C56.8828 34.1895 56.8566 34.5031 56.8848 34.8047C56.9312 35.3011 57.0557 35.7462 57.2592 36.1459C57.0446 36.5923 56.9801 37.1403 57.1002 37.6905C57.2714 38.475 57.7278 39.1575 58.3188 39.689C58.3709 40.941 59.0575 42.115 60.175 42.7671C60.2316 42.8001 60.2879 42.827 60.344 42.8512C60.3934 42.9187 60.4524 42.978 60.5198 43.0281C61.2304 43.6846 62.3549 43.6324 63.2457 43.2615C63.2629 43.2623 63.28 43.2638 63.2975 43.2641C63.6156 43.2721 63.8324 43.1482 63.9611 42.9656C64.0907 42.9726 64.2194 42.9863 64.349 43.0104C64.8221 43.0988 65.341 43.2687 65.7692 43.4892C66.8805 44.0608 67.3948 45.0711 67.5486 46.2856C67.7161 47.6104 67.3351 48.9605 66.3098 49.8571C65.8117 50.2933 65.1745 50.5665 64.5271 50.6813C63.8119 50.8088 63.0473 50.4954 62.5192 51.1095C62.4136 51.2312 62.3413 51.4011 62.3987 51.5653C62.5778 52.0773 62.8728 52.2736 63.3343 52.3448C62.6673 53.1358 61.9831 53.9003 61.2254 54.6109C60.4058 55.3812 59.5585 56.1274 58.8191 56.977C58.0374 57.8758 57.3314 58.8287 56.8412 59.9193C56.5611 60.5461 56.3361 61.1924 56.0938 61.8341L56.0505 61.946C55.7803 62.6278 55.4209 63.285 55.8367 63.997C56.002 64.2771 56.3763 64.548 56.7207 64.5032C57.6906 64.3793 58.0155 63.7238 58.3141 62.8696C58.5391 62.2245 58.7113 61.5609 58.9534 60.9215C58.9988 60.8031 59.0481 60.6859 59.0999 60.5694C59.6592 60.7253 60.2742 60.6015 60.7733 60.2826C61.3067 60.519 61.8976 60.6369 62.4683 60.6269C63.2324 60.6135 63.9305 60.4012 64.5306 60.0184C64.5784 60.0057 64.6264 59.9936 64.674 59.9799C65.587 60.3296 66.6563 60.2671 67.4829 59.7004C68.0183 59.3333 68.3842 58.8435 68.5923 58.2981C69.2839 58.2849 69.9681 58.0397 70.4637 57.549C70.9188 57.0985 71.1848 56.5173 71.2638 55.9133C71.8591 55.7954 72.4173 55.5076 72.855 55.0228C73.2205 54.6179 73.4427 54.1023 73.5177 53.5668C74.2428 53.36 74.8967 52.8865 75.2539 52.2264C75.5862 51.6119 75.6342 50.9453 75.4716 50.3389L75.5138 50.2783C76.2607 49.8874 76.8306 49.2475 76.8892 48.3334C76.9057 48.0732 76.8777 47.8128 76.8071 47.5665C76.8326 47.2911 76.8163 47.0158 76.7441 46.7494C77.7486 45.7725 78.1125 44.2032 77.5672 42.9059C78.5487 41.8498 78.8082 40.1794 78.0884 38.9259C78.582 38.3289 78.8357 37.5677 78.7933 36.7549C78.7405 35.7402 78.2755 34.8539 77.7187 34.033C78.132 33.5761 78.3524 32.939 78.3362 32.3237C78.3134 31.4317 77.8393 30.6637 77.2456 30.0277C77.7635 28.4572 77.1849 26.7536 75.9141 25.7594C76.1712 25.3358 76.2665 24.8112 76.1826 24.2796C76.0358 23.3509 75.3389 22.7184 74.587 22.2178C74.7443 21.7059 74.7029 21.1536 74.4527 20.6244C74.1186 19.9184 73.4884 19.4707 72.8306 19.0918C72.6606 17.526 70.9111 16.1885 69.444 16.9967C69.8079 15.8315 68.7596 14.5733 67.5542 14.4401C66.9643 12.6516 64.9289 11.5242 63.099 11.9685C62.1633 10.6896 60.4218 10.1972 58.9432 10.7459C57.3175 9.5003 55.3006 9.31547 53.3984 9.94802ZM64.9782 45.0665C63.836 45.0045 62.9796 45.9367 62.3779 46.7897C61.8132 47.5898 63.262 48.4348 63.6844 47.5531C63.836 47.2385 64.0082 46.9056 64.2389 46.6301C64.2777 46.6843 64.3119 46.7405 64.346 46.7982L64.3801 46.8563C64.4054 46.8987 64.4318 46.9424 64.4536 46.9871C64.4513 46.9952 64.4857 47.1008 64.4869 47.1054C64.581 47.3912 64.7865 47.5749 65.0665 47.6736C65.4283 47.7999 65.7704 47.5278 65.8863 47.2087C66.071 46.699 65.6418 46.2547 65.1952 46.0527C65.6337 45.9815 66.0654 46.1307 66.3822 46.4682C66.4257 46.5153 66.4993 46.4774 66.5015 46.4189C66.5384 45.6187 65.7015 45.1056 64.9782 45.0665Z" fill="black"/>
<path fill-rule="evenodd" clip-rule="evenodd" d="M38.5566 52.778C38.1628 52.083 36.9874 52.1959 36.8078 53.0065C36.4433 54.6498 38.4028 56.1672 39.8911 56.2051C41.37 56.2426 43.0295 54.9839 42.8154 53.3939C42.7625 53.0006 42.2371 53.0483 42.058 53.2949L41.9885 53.3895C41.5021 54.043 40.8603 54.7193 39.9575 54.56C39.5834 54.4941 39.2436 54.2604 39.0174 53.9595C38.7447 53.5964 38.7746 53.1628 38.5566 52.778ZM47.9609 40.7561C47.7605 40.7008 47.5582 40.7222 47.3806 40.7977C46.9841 40.8704 46.6529 41.201 46.5365 41.5785C46.5273 41.6112 46.517 41.6434 46.5057 41.6754L46.488 41.723L46.5355 41.602C46.5136 41.7212 46.4166 41.8464 46.3817 41.9661C46.3388 42.1131 46.3283 42.2801 46.3428 42.442C46.2167 42.4433 46.0907 42.4475 45.9649 42.4584L45.8433 42.4693C45.1633 42.5325 44.4168 42.6484 44.0137 43.236C43.7874 43.5661 43.9998 44.1606 44.4158 44.2242C45.056 44.3221 45.6075 43.9678 46.2456 43.8969C46.8487 43.8297 47.4799 43.8682 48.0752 43.9771C49.3044 44.2018 50.4339 44.7 51.6317 45.0127L51.7948 45.0541L51.7945 45.0533C51.9998 45.1028 52.2328 44.8175 52.0298 44.6505C51.0701 43.8622 49.8416 43.2233 48.6312 42.8343C48.8076 42.5538 48.8621 42.1844 48.7415 41.8833C48.7229 41.8209 48.6997 41.7602 48.6753 41.6997L48.6243 41.5753C48.6194 41.5166 48.6081 41.4586 48.5918 41.4018L48.5892 41.3845L48.5877 41.3855C48.4976 41.0927 48.2623 40.8392 47.9609 40.7561ZM35.7181 40.8014C35.4556 40.5388 35.0868 40.5776 34.8129 40.7843L34.7766 40.8128C34.5184 40.9274 34.3048 41.178 34.1645 41.4103C34.0188 41.6515 33.922 41.8972 33.9182 42.1627C33.2829 42.1648 32.6744 42.3553 32.2079 42.8682C32.0573 43.0338 31.9545 43.2891 32.0373 43.5135L32.0867 43.647C32.2433 44.0709 32.9475 44.3149 33.1868 43.8165L33.1979 43.7922C33.4521 43.2002 34.4283 43.2624 34.9471 43.3229C35.3087 43.3652 35.6658 43.4551 36.0151 43.5558C36.1381 43.5913 36.26 43.6298 36.3818 43.6691L36.5036 43.7086C36.5686 43.7296 36.907 43.9134 36.6965 43.8699C36.6399 43.8582 36.5973 43.9406 36.6551 43.9683C36.906 44.0882 37.1737 43.8493 37.157 43.5798C37.1279 43.1119 36.3849 42.8553 36.0274 42.694L36.006 42.6842C35.8689 42.6209 35.7253 42.5601 35.5771 42.5038C35.6604 42.3798 35.7293 42.242 35.7866 42.0941C35.8408 41.9546 35.8769 41.8189 35.8968 41.6704C35.9163 41.5979 35.9163 41.5253 35.8968 41.4526L35.8938 41.4319C35.9039 41.3839 35.9087 41.3343 35.9081 41.2844L35.9101 41.2649H35.9081C35.9011 41.0901 35.8316 40.9149 35.7181 40.8014ZM39.9115 45.7843C38.9032 46.0958 37.2398 46.9445 37.7652 48.2545C38.4989 49.4576 40.4446 48.5734 41.3875 48.1847C42.2346 47.9042 42.6757 49.0913 41.8566 49.4491C35.0881 52.1268 35.113 45.0599 39.6661 45.1636C40.1674 45.175 40.1831 45.6807 39.9115 45.7843ZM48.8665 36.5696L48.6945 36.5194C47.8007 36.2605 46.8884 35.8135 46.0949 36.511C45.7834 36.7849 45.7192 37.3541 45.9421 37.6958C46.45 38.4742 47.2032 38.3553 48.0235 38.4216C48.648 38.4721 49.2632 38.6556 49.8461 38.8848C50.3226 39.0723 50.7644 39.3362 51.1816 39.6306C51.5914 39.92 51.8714 40.3724 52.2918 40.6329C52.4459 40.7284 52.6238 40.6302 52.6792 40.4753C52.8752 39.926 52.5439 39.2416 52.2636 38.7736C51.9214 38.2026 51.4016 37.7356 50.8426 37.3822C50.2305 36.9952 49.5537 36.7718 48.8665 36.5696ZM35.8438 35.9785C34.3332 35.9781 32.8796 36.8183 32.0346 38.05C31.7475 38.4684 31.958 39.0883 32.3701 39.3293C32.8324 39.5998 33.3268 39.405 33.6315 39.0174L33.6495 38.994C34.1341 38.3487 34.7587 37.8405 35.4992 37.5096C35.8605 37.3481 36.26 37.2171 36.6507 37.1506L36.777 37.129C36.954 37.0993 37.1594 37.071 37.3195 37.0987C37.4052 37.11 37.484 37.1383 37.5565 37.1815C37.5216 37.2577 37.6117 37.3496 37.695 37.3039C38.0704 37.0977 38.0243 36.7299 37.7143 36.444C37.2756 36.0396 36.4104 35.9786 35.8438 35.9785Z" fill="black"/>
<path fill-rule="evenodd" clip-rule="evenodd" d="M32.0965 37.8145C29.4019 37.8145 27.8642 38.3939 27.3007 38.4391L27.2838 38.4403C27.0494 38.4553 26.8392 38.4749 26.6186 38.5602C25.8075 38.8725 25.6753 39.7233 26.1487 40.2594C26.1819 41.3688 26.036 42.665 26.2863 43.778C26.5951 48.47 28.8017 49.2618 30.056 49.5508C30.6857 49.6959 31.432 49.7537 32.1009 49.6005C33.242 49.5579 34.3701 49.2007 35.3353 48.5787C36.6795 47.7117 37.6779 46.3792 38.0019 44.7977C38.1554 44.0439 38.2272 43.2593 38.1436 42.493L38.1312 42.3875C38.5682 42.1785 39.0745 42.1389 39.5964 42.1205C39.8457 42.1116 40.0915 42.1037 40.3302 42.1143C40.5636 42.1403 40.7942 42.175 41.0254 42.2223C41.278 42.2985 41.5165 42.4242 41.7367 42.6234L41.7519 42.9142C41.7932 43.6404 41.8886 44.3688 42.0357 45.0813C42.2528 46.1326 42.6021 47.1366 43.3454 47.8823C43.597 48.2581 43.9084 48.5936 44.2863 48.8841C45.6594 49.9412 47.5249 50.3294 49.237 50.1832C52.7127 49.8866 54.7218 47.1274 55.1848 45.948L55.2125 45.8766C55.5469 44.9998 55.8135 43.8622 56.8704 43.6738L57.0951 43.6334C57.5774 43.5429 58.0224 43.4169 58.3052 42.9463C58.4292 42.7409 58.4929 42.5112 58.5086 42.2769C58.6736 42.2896 58.8383 42.3017 59.0025 42.3135C60.3122 42.5904 68.1676 42.8253 68.7947 42.8253C68.7947 42.8253 70 43.3326 70.5088 42.9395C70.8615 42.6662 70.9776 42.3019 70.7834 41.8893C70.4904 41.2683 69.1389 40.8949 68.5387 40.7766C68.5387 40.7766 58.8536 40.857 58.1566 40.7249C57.7253 40.2802 56.9538 40.341 56.3091 40.2707C55.7755 39.8902 55.0289 39.6353 54.4392 39.4647C54.319 39.4192 54.2 39.3751 54.0843 39.3336C53.0032 38.9486 51.8794 38.7447 50.7386 38.6352C49.5621 38.5234 48.3822 38.574 47.2126 38.7342C46.7197 38.8011 46.2314 38.8875 45.7466 39.0006C44.8785 39.1151 44.0154 39.3036 43.1469 39.5272L42.9732 39.5724C42.0586 39.8121 41.1188 40.0195 40.1721 39.857C39.4014 39.7255 38.6602 39.4289 37.9496 39.1082L37.8571 39.0662C36.2946 38.3528 33.8545 37.8145 32.0965 37.8145ZM45.8406 40.423C46.4171 40.2962 46.6633 41.1851 46.085 41.3122C45.6754 41.4022 45.3283 41.6088 45.0938 41.9587L45.0691 41.9967C44.7544 42.4974 43.9587 42.0352 44.2755 41.5312C44.6321 40.9641 45.1861 40.5668 45.8406 40.423ZM28.9551 39.8719C29.1583 39.7287 29.4659 39.835 29.5839 40.0373C29.7137 40.26 29.6286 40.5081 29.4383 40.6538L29.4189 40.6681C29.2443 40.7911 29.0743 41.0117 29.0529 41.2377L29.051 41.266C29.0282 41.8574 28.1089 41.8604 28.1319 41.266C28.1543 40.6844 28.4911 40.1985 28.9551 39.8719Z" fill="black"/>
</g>
</svg>
