<svg xmlns="http://www.w3.org/2000/svg" width="100" height="100" viewBox="0 0 100 100" fill="none">
<mask id="mask0_50_883" style="mask-type:alpha" maskUnits="userSpaceOnUse" x="0" y="0" width="100" height="100">
<circle cx="50" cy="50" r="50" fill="#D9D9D9"/>
</mask>
<g mask="url(#mask0_50_883)">
<path fill-rule="evenodd" clip-rule="evenodd" d="M84.0038 127.944C83.5555 125.413 83.1445 122.874 82.771 120.33C82.5937 119.122 82.4208 117.913 82.2653 116.702C82.1564 115.854 81.9906 114.883 82.5678 114.255C83.3801 113.371 84.1179 112.614 84.2174 111.347C84.3109 110.155 83.9078 108.855 83.6558 107.698C83.1273 105.272 82.4693 102.876 81.7422 100.502C81.0036 98.0902 80.1937 95.7013 79.3721 93.3169C78.604 91.0875 77.8656 88.8381 76.8651 86.6992C74.9665 82.6401 71.7544 79.6341 67.7846 77.627C66.7973 77.1278 64.7836 75.3458 63.7521 74.9469C62.8038 74.58 62.8072 75.6512 61.8739 75.2477C61.1279 74.9252 60.4332 74.4951 60.0154 73.7747C59.5619 72.9925 58.4244 71.8985 58.2512 70.9881C57.8843 69.0582 58.2818 67.4156 56.9044 65.9631C55.6816 64.6733 54.0381 63.7897 52.3375 63.3153C48.5965 62.2719 43.6073 63.0014 41.3501 66.4776C40.272 68.1378 39.8953 70.1444 38.4407 71.4992C37.1704 72.6822 37.4547 73.491 35.8095 74.1007C35.7163 74.1353 33.1907 73.5936 33.0975 73.6282C31.2977 73.2431 29.5775 74.3212 27.9263 74.9469C25.4646 75.8794 23.1209 77.0933 20.919 78.5359C16.4792 81.445 12.6765 85.2224 9.54146 89.497C6.38053 93.8068 3.92797 98.6375 2.18167 103.686C1.75758 104.913 1.37664 106.154 1.04064 107.407C0.852561 108.109 0.651583 108.836 0.880589 109.554C1.06789 110.142 1.48453 110.579 1.97379 110.932C2.63701 111.41 3.96734 111.72 3.94142 112.682C3.92163 113.412 3.67371 114.181 3.5527 114.904C3.40867 115.764 3.29033 116.629 3.17199 117.492C2.63367 121.424 2.2147 125.378 2.0294 129.343C1.847 133.247 1.69563 137.231 1.96645 141.134C1.98436 141.391 2.0611 141.628 2.18489 141.827C2.06933 141.872 2.06043 142.087 2.20424 142.117C2.30501 142.139 2.40556 142.16 2.50632 142.181C2.71564 142.34 2.97668 142.437 3.27709 142.446C3.48074 142.453 3.68428 142.462 3.8877 142.472C6.0344 142.921 8.18077 143.345 10.3555 143.666C12.999 144.056 15.6503 144.374 18.3099 144.633C23.7748 145.164 29.1966 144.988 34.6688 144.702C40.1325 144.416 45.5929 144.349 51.0623 144.491C56.5364 144.633 62.0085 144.872 67.4839 144.969C73.601 145.078 79.7088 144.911 85.8082 144.424C86.6445 144.358 87.1619 143.692 86.9969 142.862C86.0087 137.885 84.8888 132.942 84.0038 127.944Z" fill="white"/>
<path fill-rule="evenodd" clip-rule="evenodd" d="M31.3908 73.5047C31.9565 73.4802 32.5333 73.5717 33.0976 73.6272C33.1468 73.632 33.1655 73.7078 33.1101 73.7194C32.1001 73.9304 31.1012 74.219 30.1093 74.5122L29.6846 74.6379C28.566 74.9688 27.4803 75.3101 26.3974 75.7514C24.2392 76.631 22.1895 77.8182 20.3031 79.1821C13.0389 84.4341 7.78147 92.3858 4.46371 100.619C3.5627 102.854 2.79927 105.146 2.18088 107.476C2.0305 108.043 1.88903 108.612 1.75489 109.183C1.71552 109.35 1.54391 109.779 1.638 109.95C1.72119 110.101 2.04463 110.195 2.19489 110.274L2.70219 110.537C3.69172 111.047 5.34001 111.885 5.50531 111.967L5.7631 112.094C9.9796 114.161 14.4849 115.914 19.2298 116.035L19.2669 115.63C19.4785 113.39 19.7561 111.138 20.362 108.966C20.3946 108.85 20.5431 108.889 20.5567 108.993C20.8942 111.563 20.7863 114.154 20.6686 116.736C20.46 121.31 20.1831 125.881 19.9369 130.453C19.8137 132.74 19.6544 135.025 19.5106 137.311C19.3666 139.601 19.32 141.947 18.9911 144.218C18.9178 144.725 18.3248 145 17.8757 144.947C17.3787 144.887 16.9965 144.45 16.9941 143.948C16.9881 142.625 17.1544 141.286 17.2468 139.966C17.3346 138.712 17.4288 137.458 17.5253 136.205C17.8781 131.63 18.284 127.061 18.6593 122.488C18.7924 120.866 18.9361 119.246 19.084 117.626C14.0575 117.464 9.3616 115.602 4.88179 113.426C4.81695 114.899 4.66035 116.368 4.50876 117.834C4.08556 121.926 3.7124 126.016 3.43313 130.12C3.2921 132.193 3.18944 134.268 3.10002 136.344C3.05608 137.364 3.02027 138.384 2.9928 139.405C2.9836 139.745 2.9753 140.085 2.96795 140.426L2.95267 141.205C2.94016 141.699 2.88996 142.156 2.47439 142.516C2.0523 142.881 1.48218 142.901 1.06443 142.516C0.505202 142.001 0.604078 141.299 0.62065 140.608C0.634442 140.025 0.651014 139.441 0.670255 138.858C0.708849 137.692 0.758121 136.526 0.81807 135.36C1.02785 131.285 1.44699 127.227 1.99476 123.185L2.20859 121.625C2.60791 118.724 3.04631 115.757 3.93896 112.963C3.59139 112.79 3.24483 112.616 2.89959 112.441C2.2872 112.131 1.65402 111.84 1.05875 111.498C0.586505 111.226 0.179209 110.854 0.0477446 110.304C-0.0988716 109.692 0.125327 109.023 0.274271 108.425L0.287206 108.373C0.433241 107.771 0.590509 107.172 0.756452 106.576C1.42935 104.158 2.2614 101.788 3.23515 99.4748C5.18488 94.8444 7.7015 90.4454 10.7756 86.468C13.5427 82.8878 16.8115 79.641 20.6426 77.2059C22.5156 76.0154 24.5116 75.0378 26.6225 74.3467C27.6092 74.0237 28.6827 73.7428 29.7157 73.6271C30.2729 73.5648 30.8309 73.5291 31.3908 73.5047ZM41.4135 66.1674C42.0857 65.4456 43.4212 66.1926 43.0985 67.1484C42.3393 69.3972 41.1303 71.4485 39.2435 72.9262C37.47 74.3154 35.3551 75.2175 33.0775 75.025C33.0599 75.0234 33.0447 75.0189 33.0312 75.0126L33.2275 75.2788C34.7684 77.3633 36.3941 79.4189 38.3534 81.1226C42.3455 84.594 47.7809 86.4663 53.0295 85.1344C57.159 84.0866 60.797 80.8212 61.867 76.6597C61.7136 76.7284 61.5313 76.7519 61.3312 76.7084C60.4752 76.5226 59.6276 75.6222 59.0755 74.9767C58.4783 74.2783 58.0118 73.5242 57.6699 72.6718C57.0442 71.1118 56.8435 69.1033 57.6979 67.5921C57.8034 67.4058 58.0465 67.5102 58.0672 67.6921L58.0997 67.9759C58.2645 69.3922 58.4696 70.7621 59.1374 72.0532C59.4642 72.685 59.8559 73.3016 60.3327 73.8307C60.5878 74.1137 60.8644 74.3842 61.1631 74.6216C61.4541 74.8528 61.8063 75.02 62.0671 75.2853L62.1149 75.3363L62.1163 75.3271C62.1822 74.7665 62.5754 74.5195 62.9601 74.5349C63.3324 74.5499 63.7697 74.7137 63.9391 74.7922L63.9551 74.7998C66.5523 76.0466 68.9444 77.6717 71.1955 79.4746C75.8509 83.2032 79.3389 88.0775 81.0289 93.8175C81.8584 96.6346 82.3344 99.5374 82.8368 102.427L83.1461 104.197C83.6151 106.864 84.1389 109.584 85.1975 112.065C85.4714 112.707 85.2603 113.309 84.5888 113.561C83.7504 113.877 82.9089 114.182 82.0661 114.483C82.4799 116.259 82.7323 118.096 83.0424 119.88C83.7015 123.672 84.5091 127.441 85.2015 131.228C85.5555 133.165 85.875 135.108 86.2287 137.045C86.3989 137.977 86.5767 138.909 86.7495 139.841C86.8426 140.344 86.927 140.848 87.0159 141.351L87.0314 141.435C87.0823 141.701 87.1462 141.975 87.0732 142.241C86.9899 142.544 86.7533 142.758 86.5421 142.975C86.3682 143.154 86.117 143.156 85.904 143.058L85.8339 143.025C85.4535 142.848 85.1555 142.67 85.0206 142.241C84.9351 141.969 84.9043 141.663 84.8485 141.383C84.7414 140.847 84.6399 140.309 84.544 139.77C84.3522 138.692 84.1649 137.613 83.9821 136.534L83.8113 135.523C83.2251 132.038 82.6685 128.533 82.3871 125.011C82.2622 123.449 82.1299 121.888 81.9964 120.327L81.8961 119.156C81.7693 117.674 81.6144 116.155 81.5925 114.653L81.0885 114.831L78.6293 115.701C78.0196 115.916 77.2432 116.358 76.587 116.277C76.2658 116.238 76.0209 116.137 75.8318 115.953C76.0583 119.149 76.3648 122.339 76.7733 125.513C77.145 128.401 77.5571 131.285 78.0438 134.156C78.2848 135.578 78.5325 136.998 78.8016 138.415C78.936 139.123 79.0749 139.83 79.2179 140.537C79.2892 140.89 79.374 141.243 79.4297 141.598C79.4933 142.005 79.3812 142.256 79.1537 142.591C78.967 142.866 78.5934 143.007 78.2905 142.817C77.8894 142.565 77.6802 142.347 77.5622 141.889C77.455 141.473 77.3898 141.038 77.3069 140.616C77.1537 139.838 77.0057 139.059 76.8628 138.278C76.5639 136.647 76.2884 135.011 76.0424 133.37C75.1754 127.59 74.6253 121.761 74.3475 115.923C74.2103 113.043 74.168 110.16 74.1923 107.277C74.2048 105.799 74.253 104.317 74.3576 102.843C74.4635 101.35 74.6837 99.8879 74.8803 98.41C74.8872 98.3579 74.9606 98.3549 74.9637 98.41C75.0568 100.067 75.2028 101.722 75.2743 103.383C75.3426 104.969 75.3725 106.556 75.4268 108.142C75.4981 110.227 75.5969 112.312 75.7278 114.397C75.9649 114.137 76.3221 113.988 76.6796 114.046C77.1974 113.938 77.7549 113.666 78.2486 113.501L80.1098 112.879C81.0882 112.553 82.0666 112.228 83.0485 111.913C82.1706 108.96 81.5693 105.963 81.0558 102.922L80.8268 101.554C80.3735 98.8619 79.8847 96.1686 79.0636 93.5617C78.2004 90.821 76.9087 88.2729 75.1951 85.9653C73.506 83.6912 71.4509 81.6887 69.335 79.8157C67.5235 78.2124 65.5857 76.7647 63.7381 75.2054C63.7574 75.3087 63.7616 75.4225 63.7445 75.5475C63.3517 78.4226 61.8519 81.1 59.7617 83.0915C55.5625 87.0922 49.3466 87.9223 43.9721 86.0462C38.7733 84.2315 34.1768 79.9336 32.5528 74.6153C32.525 74.5243 32.6469 74.4882 32.6959 74.555C32.786 74.6785 32.8765 74.802 32.9671 74.9254C32.961 74.8764 32.9865 74.823 33.047 74.7996C34.9418 74.068 36.8024 73.0304 38.2227 71.5626C38.915 70.8471 39.5191 70.0365 39.996 69.1623C40.2245 68.7436 40.4297 68.3099 40.5934 67.8618L40.635 67.7459C40.8334 67.1845 40.9992 66.6121 41.4135 66.1674Z" fill="black"/>
<path fill-rule="evenodd" clip-rule="evenodd" d="M66.9848 37.8316C68.2503 36.9227 66.3633 33.9323 65.7223 33.0425C65.1646 31.8818 64.6069 30.7209 64.0491 29.5601C64.117 28.6082 63.1874 27.7612 62.2688 28.0508C61.4697 27.4777 60.1312 27.7521 59.725 28.6494C50.8888 24.8009 35.5995 26.402 34.8088 38.2774C33.0996 41.6585 31.4054 45.0686 29.8889 48.5411C27.7848 48.6541 26.7649 51.2103 28.0176 52.8623C28.1843 55.5448 29.885 55.7572 32.1555 55.6378C33.0673 55.878 34.0125 56.0081 34.6963 56.7122C35.216 57.2433 35.5692 57.9168 35.9101 58.5702C37.4834 61.585 39.4822 64.1929 42.1915 66.2785C46.405 69.4317 52.1087 71.6956 57.3626 70.1607C68.658 65.7249 70.8762 47.9976 66.9848 37.8316Z" fill="white"/>
<path fill-rule="evenodd" clip-rule="evenodd" d="M43.4124 20.5553C50.792 18.8414 59.0825 21.1415 64.2043 26.8083C64.5647 27.2064 64.5257 27.7247 64.2088 28.0606C64.3567 28.1807 64.5013 28.3042 64.6481 28.4276C64.8016 28.5578 64.7793 28.8191 64.6481 28.9515C64.518 29.0816 64.2477 29.1083 64.1242 28.9515L63.9415 28.7215C63.8505 28.6066 63.7605 28.4913 63.6738 28.3731C63.5681 28.4121 63.4647 28.4532 63.3612 28.4933C64.9261 29.5332 66.2308 30.9146 67.125 32.5773C68.0926 34.3758 68.7099 36.2955 69.1114 38.2931C69.8272 41.8564 69.931 45.511 69.8352 49.1344L69.8299 49.3285C69.7065 53.6962 69.2805 58.1362 67.4386 62.1524C65.9616 65.3712 63.3368 68.3308 60.0457 69.74C58.1505 70.5508 56.1129 70.8967 54.0542 70.7521C52.9686 70.6765 51.8865 70.5052 50.8298 70.2438L50.576 70.1808C49.6135 69.9397 48.6152 69.6603 47.7935 69.1094C46.9504 68.5433 47.5188 67.4188 48.4486 67.5556C49.5686 67.7213 50.6352 68.1885 51.7463 68.4309C52.8329 68.6689 53.9329 68.7935 55.0463 68.7613C57.016 68.7056 58.81 68.1006 60.4383 67.0017C66.6634 62.7986 67.4197 54.348 67.5821 47.5189C67.6611 44.1823 67.5387 40.8022 66.7713 37.5423C66.0339 34.4081 64.7649 31.3216 62.9686 28.6445C62.5727 28.7925 62.1767 28.9159 61.7552 28.9548C61.0038 29.4065 60.1102 29.4185 59.2414 29.4186L59.1203 29.4186C58.2161 29.4175 57.3119 29.3641 56.4121 29.2829C53.2278 29.0004 49.9512 28.2842 46.7502 28.7402L46.6195 28.7593C45.3015 28.9575 43.6682 29.3735 42.7006 30.3218C41.6551 31.345 42.3558 33.2814 43.1833 33.8964C43.7183 34.2946 43.8851 35.1911 43.1833 35.5525C41.7975 36.2677 38.443 35.8706 38.066 36.2666C37.6134 36.7399 37.645 37.4612 37.632 38.0754L37.6311 38.1162C37.5844 39.8646 37.6278 41.6075 37.7757 43.3514C37.9181 45.0376 38.2417 46.727 38.314 48.4176C38.3385 48.9748 37.6656 49.1439 37.2974 48.838C37.2251 48.778 37.1506 48.7212 37.0761 48.6701C36.4077 48.1963 35.648 47.9961 34.8328 47.8693C34.7899 47.8625 34.7565 47.8412 34.7324 47.8129L34.7226 47.8003L34.6359 47.8715C34.8049 48.0817 34.9495 48.3197 35.0641 48.5867C35.0875 48.6401 35.0374 48.7079 34.9785 48.6723C33.8507 48.0016 32.6228 47.7169 31.3248 47.9883C30.157 48.2319 29.1004 48.9726 28.7578 50.1582C28.443 51.2493 28.6744 52.5072 29.3806 53.4048C30.425 54.735 32.1212 54.6149 33.6427 54.6761C33.9408 54.6883 34.2733 54.8329 34.4123 55.1176C34.5758 55.4535 34.5647 55.6826 34.4123 56.0174C34.3912 56.0652 34.3634 56.1086 34.3311 56.1475C34.46 56.2541 34.5819 56.3708 34.7006 56.4897L35.0979 56.8898C35.3697 57.1643 35.6399 57.4411 35.9005 57.7247C36.6657 58.5588 37.3853 59.4464 38.0626 60.3529L38.1252 60.4375C38.9186 61.5228 39.7416 63.0902 41.1168 63.4326C41.5884 63.5505 42.0266 63.783 42.1667 64.2935C42.3069 64.804 41.9766 65.2989 41.5328 65.5125C40.7631 65.8828 39.7866 65.4424 39.1515 64.9753C37.7819 63.9664 36.8871 62.3205 36.0459 60.8716L35.8156 60.4756C35.3823 59.728 34.9591 58.9716 34.5981 58.1863C34.3923 57.738 34.171 57.2931 33.9797 56.8382C33.9241 56.7059 33.8685 56.5713 33.8251 56.4334C33.7639 56.4467 33.7016 56.4556 33.6427 56.459C31.8064 56.5791 29.6921 56.2877 28.3652 54.8941C26.5356 52.9733 26.3209 49.5387 28.3997 47.7058C28.6188 47.5123 28.8657 47.3421 29.1326 47.1964C28.7611 46.568 28.5153 45.8395 28.334 45.1555C28.0693 44.1567 27.9214 43.139 27.848 42.1091C27.7001 40.0081 27.9459 37.8693 28.4508 35.8284C30.2815 28.431 35.9027 22.2993 43.4124 20.5553ZM30.1136 51.2515C29.7502 49.144 33.9674 50.7025 34.8871 50.8493L34.914 50.8533C35.9688 50.9998 35.3809 52.85 34.3427 52.2989L34.3111 52.2814C33.7495 51.9596 33.1317 51.7289 32.5428 51.4563L32.417 51.3972C31.9488 51.1725 30.4017 50.1638 30.2337 51.2515C30.2248 51.3116 30.1236 51.3105 30.1136 51.2515Z" fill="black"/>
</g>
<path fill-rule="evenodd" clip-rule="evenodd" d="M61.1024 56.7583C60.737 57.2443 60.0754 57.6164 59.3345 57.7944C58.6284 57.964 57.8481 57.9571 57.1747 57.6961L57.1169 57.6727C56.6134 57.46 56.1301 57.0305 55.9466 56.5823C55.8736 56.4041 55.8489 56.223 55.8989 56.054C55.9438 55.9019 56.0491 55.762 56.2245 55.6418C56.2796 55.604 56.3534 55.6013 56.4238 55.6139C56.5111 55.6296 56.5972 55.6711 56.6491 55.7273C56.9372 56.0389 57.3552 56.3427 57.85 56.3375C58.2317 56.3335 58.5434 56.1802 58.8457 56.0069L59.0581 55.8832C59.2631 55.7642 59.471 55.6525 59.7061 55.6014C60.1271 55.51 60.6377 55.677 60.9488 55.9527C61.0845 56.0729 61.1831 56.2142 61.2099 56.3664C61.2324 56.4942 61.2008 56.6275 61.1024 56.7583ZM58.9137 48.2599C59.7499 48.7769 61.0239 49.9823 60.1244 51.264C59.0656 52.394 57.5412 51.0983 56.79 50.5124C56.0934 50.0582 55.3108 51.2262 55.9571 51.7565C61.3853 55.8444 63.5882 48.3951 59.3366 47.6521C58.8685 47.5702 58.6947 48.1 58.9137 48.2599ZM49.4808 40.3145L49.721 40.2475L49.9659 40.1802L50.1316 40.1357C51.2693 39.8328 52.5241 39.5662 53.6523 39.6964C54.0638 39.7439 54.3977 39.9794 54.456 40.4179C54.505 40.7878 54.2699 41.2652 53.8699 41.3309C52.5448 41.549 51.1883 41.4782 49.8572 41.7031C49.1942 41.8149 48.5364 41.9538 47.876 42.0789C47.3739 42.1742 46.855 42.2076 46.3486 42.2847L46.4649 42.3011C46.5057 42.3067 46.4955 42.3765 46.4553 42.3736C46.2884 42.3567 46.1212 42.3541 45.9537 42.366L45.882 42.3719C45.7727 42.3876 45.7082 42.2549 45.8057 42.1876C46.4227 41.7617 46.9464 41.3002 47.6373 40.9863C48.2349 40.7149 48.85 40.4911 49.4808 40.3145ZM59.8381 39.6614C60.7128 38.7619 62.573 39.1076 63.6136 39.519C64.2076 39.7539 64.7723 40.0509 65.2426 40.4953L65.2885 40.539L65.3591 40.6081C65.6766 40.9242 66.0307 41.3593 65.9803 41.8151C65.9727 41.8846 65.9354 41.964 65.8583 41.978C65.4415 42.0531 65.0321 41.8294 64.6473 41.6949L64.3924 41.6059C64.0096 41.4733 63.6244 41.3465 63.2297 41.255C62.739 41.1415 62.2384 41.0758 61.7346 41.0824C61.2254 41.0891 60.6784 41.2353 60.1933 41.0297C59.6523 40.8005 59.3718 40.1409 59.8381 39.6614ZM51.1963 46.9155C50.9731 47.1473 50.6783 47.2781 50.3011 47.2003C50.0063 47.1395 49.4451 46.838 48.9967 46.3737C48.69 46.0561 48.4335 45.6592 48.3638 45.1994C48.3476 45.0926 48.2919 45.0241 48.2187 44.981C48.1609 44.947 48.0848 44.9299 48.0018 44.9384C47.9314 44.9456 47.8566 44.9716 47.7988 45.006C47.6888 45.0714 47.6439 45.1643 47.6347 45.2337C47.5465 45.9031 47.8007 46.5673 48.197 47.1274C48.7318 47.8832 49.5171 48.4371 49.9787 48.5667C50.7686 48.7887 51.6009 48.612 52.2145 48.0527C52.7053 47.6056 52.9568 47.0231 53.1902 46.4241L53.2352 46.308C53.2877 46.172 53.3398 46.0371 53.395 45.9036C53.5056 45.6361 53.4701 45.4049 53.3629 45.2247C53.2441 45.025 53.0248 44.8845 52.7806 44.8413C52.5549 44.8015 52.3134 44.8451 52.1228 44.9853C51.9618 45.1037 51.8319 45.2914 51.7857 45.5689C51.7107 46.0202 51.5366 46.5379 51.2297 46.8795L51.1963 46.9155ZM64.7409 44.3037C64.5568 44.2061 64.4129 44.1767 64.2087 44.2389C64.0958 44.2734 63.9842 44.3395 63.8968 44.4284C63.8102 44.5165 63.7478 44.626 63.7235 44.7475C63.6638 45.0473 63.5025 45.328 63.2726 45.511C63.0762 45.6674 62.8282 45.7503 62.5532 45.7035C62.2564 45.6531 61.9736 45.4595 61.7789 45.2312C61.7246 45.1676 61.6801 45.0967 61.6371 45.025L61.6114 44.9819C61.5155 44.8208 61.4222 44.671 61.2899 44.5527C61.2397 44.5077 61.1641 44.4765 61.0909 44.4765C61.0612 44.4765 61.031 44.4814 61.0022 44.4905C60.7068 44.7921 60.65 45.0209 60.6595 45.2478C60.6695 45.4858 60.7617 45.7267 60.9108 45.9515C61.2604 46.4788 61.9242 46.9112 62.3722 47.0091C62.9857 47.1432 63.5949 46.9822 64.0834 46.6337C64.586 46.2751 64.9584 45.7183 65.0746 45.0908C65.1025 44.9397 65.0906 44.7766 65.034 44.6352C64.9787 44.497 64.8824 44.3786 64.7409 44.3037Z" fill="black"/>
</svg>