<svg width="100" height="100" viewBox="0 0 100 100" fill="none" xmlns="http://www.w3.org/2000/svg">
<mask id="mask0_52_930" style="mask-type:alpha" maskUnits="userSpaceOnUse" x="0" y="0" width="100" height="100">
<circle cx="50" cy="50" r="50" fill="#D9D9D9"/>
</mask>
<g mask="url(#mask0_52_930)">
<path fill-rule="evenodd" clip-rule="evenodd" d="M69.6024 148.388C69.8306 150.769 69.364 153.043 68.2526 154.965L67.891 155.59L68.5793 155.831C69.8319 156.269 71.2248 156.482 72.8378 156.482C74.4978 156.482 76.224 156.251 77.611 156.065L78.4991 155.946L78.0628 155.175C77.712 154.555 77.6471 153.803 77.5783 153.008C77.5598 152.794 77.5407 152.573 77.5156 152.355C76.2014 140.607 74.5401 128.707 72.9335 117.198C72.5106 114.17 72.0735 111.038 71.6494 107.957L70.4329 108.004C70.1056 113.706 69.788 119.504 69.481 125.112C69.3459 127.577 69.2108 130.043 69.0746 132.509C68.5891 138.742 68.7568 143.789 69.6024 148.388ZM70.0989 218.833C68.3123 218.833 66.5223 218.647 64.7788 218.28C59.3227 217.134 54.3658 214.432 50.1479 211.989C49.9325 211.867 49.714 211.745 49.4897 211.62C47.8384 210.696 45.7834 209.546 44.4955 208.144C43.0827 206.605 42.8395 205.073 43.7304 203.32L43.8713 203.042L43.7241 202.768C42.8016 201.051 42.8702 198.927 43.8908 197.602L44.7486 196.49L43.3383 196.639C41.9163 196.79 40.4831 196.994 39.097 197.192C37.5591 197.412 35.9686 197.638 34.4023 197.79L33.967 197.833L33.8669 198.252C33.8112 198.485 33.7424 198.627 33.2592 198.627C32.8402 198.627 32.2771 198.504 31.6811 198.375C30.9415 198.214 30.1031 198.031 29.2947 198.031C28.9391 198.031 28.6193 198.065 28.3168 198.135L28.1407 198.175L28.0155 198.303C27.9354 198.385 27.799 198.436 27.6597 198.436C27.5543 198.436 27.4565 198.407 27.3912 198.356L27.1937 198.201L26.9431 198.229C22.5765 198.708 18.8113 199.55 15.4326 200.801L15.4173 200.807L15.344 200.838C14.1223 201.366 12.8592 201.911 11.7088 201.911C10.8679 201.911 10.185 201.625 9.55965 201.011L9.38291 200.837L9.13362 200.835C6.60416 200.812 5.44838 197.862 5.28857 195.885L5.26849 195.636L5.07566 195.474C0.667401 191.775 -1.93503 186.694 -2.88065 179.942C-3.74188 173.791 -3.08062 167.306 -2.32019 161.773C-0.561146 147.435 1.27352 134.582 5.93719 122.392L6.1551 121.822L5.57446 121.613C3.56021 120.89 2.0208 120.026 0.868184 118.973L0.78838 118.9L0.687888 118.859C-0.964037 118.18 -1.77308 115.675 -1.98171 114.923L-1.99843 114.863L-2.02758 114.807C-2.36463 114.16 -2.44239 113.261 -2.24079 112.339L-2.21919 112.24L-2.23172 112.139C-2.34057 111.264 -1.97927 110.349 -1.59676 109.38C-1.42196 108.938 -1.24136 108.481 -1.10938 108.025C-0.655626 106.723 -0.202386 105.398 0.236075 104.117C1.21981 101.241 2.23687 98.2683 3.32039 95.3761L3.46858 94.9806L3.14213 94.708C2.58483 94.2425 2.77094 93.6945 3.57458 92.3844C3.76445 92.0749 3.94404 91.7821 4.08061 91.4936C5.11072 89.7136 6.21472 88.0049 7.36255 86.4144L7.38619 86.3818L7.40505 86.3464C13.2949 75.3463 23.7425 69.2884 36.823 69.2884L37.0897 69.2889L37.237 69.2002C39.6886 67.726 41.4387 65.1964 42.5872 61.4671L42.6239 61.3482L42.6098 61.2247C42.5704 60.881 42.5273 60.4303 42.5421 59.993C42.5795 58.8856 43.0136 57.8973 43.7329 57.2816C45.0977 56.1134 47.1697 56.0156 49.175 56.0156H49.4629C52.0267 56.0235 53.8367 56.4686 55.1592 57.4172C56.6958 58.5193 57.545 60.2984 57.7554 62.8561C57.8183 63.6214 57.8162 64.4143 57.8142 65.181L57.8137 65.395L57.8395 65.4799C58.0238 66.0878 58.2396 66.6719 58.481 67.2162L58.7293 67.7761L59.2939 67.5236C59.6591 67.3605 60.122 67.2765 60.7095 67.2671C60.8789 67.2632 61.0441 67.2613 61.2107 67.2613C62.5747 67.2613 64.0338 67.3859 65.445 67.5062C66.5082 67.597 67.6078 67.6909 68.672 67.7326L68.6866 67.7332C68.6866 67.7332 68.8336 67.7323 68.8995 67.7323C71.4861 67.7323 73.3613 68.139 74.8005 69.0125C76.3502 69.9529 77.4645 71.4622 78.307 73.7623C82.8264 86.9467 84.6844 101.148 86.3233 113.677C87.2529 120.229 87.5356 126.946 87.8091 133.442C88.0978 140.298 88.3962 147.388 89.4531 154.318L89.5365 154.866L90.0977 154.83C92.5673 154.671 95.2361 154.327 98.0615 153.964C102.354 153.412 106.793 152.841 111.085 152.841C117.085 152.841 121.634 154.021 124.99 156.449C127.33 158.654 128.541 161.64 128.491 165.085C128.421 169.953 125.846 175.335 121.931 178.796L121.917 178.81C116.969 183.484 107.937 187.538 95.0723 190.86C83.2424 193.914 71.0059 195.574 64.7646 196.291L63.2199 196.469L64.4737 197.375C64.9812 197.742 65.4442 198.065 65.8893 198.363L66.1764 198.555L66.4909 198.411C67.3878 198 67.9574 197.913 68.2776 197.913C68.5616 197.913 68.9043 197.975 68.9231 198.269C68.9355 198.461 68.7985 198.747 68.5093 198.783L66.974 198.975L68.2276 199.869C69.065 200.466 70.3144 201.186 71.7611 202.02C76.4942 204.747 83.647 208.868 82.4168 212.487L82.3361 212.725L82.4504 212.949C82.7809 213.597 82.8092 214.198 82.5364 214.788C81.9524 216.051 80.1255 217.009 78.574 217.399L78.5474 217.406L78.5214 217.415C75.8217 218.356 72.9879 218.833 70.0989 218.833Z" fill="white"/>
<path fill-rule="evenodd" clip-rule="evenodd" d="M64.9057 195.584C65.0923 195.394 65.1707 195.145 64.9964 194.853C64.3228 193.992 62.9253 194.581 62.0561 194.779C61.7278 194.506 61.4017 194.232 61.0878 193.943C61.1969 193.267 60.3835 192.817 60.0492 192.295C59.7211 191.91 59.4122 191.473 59.0187 191.151C58.0598 190.403 56.7307 190.909 55.6177 190.875C54.7606 189.785 53.878 188.729 53.0626 187.602C54.0023 186.023 54.0686 184.173 53.7567 182.413C68.1713 176.943 80.6483 166.587 96.2381 164.194C96.7742 164.105 97.0749 163.453 96.9412 162.975C95.8537 160.38 80.2263 167.076 77.8903 168.289C71.0006 171.588 64.5469 175.7 57.8508 179.329C56.4545 180.07 54.9186 180.469 53.3918 180.855C51.0456 173.154 47.0767 166.096 44.0335 158.671C44.2311 158.329 44.3994 157.97 44.5421 157.6C44.4412 161.683 48.412 161.626 48.9603 157.753C48.734 159.772 50.2608 164.096 52.4643 161.259C52.9811 160.546 53.1645 159.633 53.2521 158.712C53.3653 159.349 53.4937 159.982 53.6364 160.614C54.202 161.865 55.7462 160.344 56.1048 159.691C56.3118 159.654 56.5055 159.56 56.6471 159.444C60.5436 159.985 65.1329 159.954 67.9919 156.878C72.8413 158.739 78.2084 157.072 83.1128 156.329C93.0928 155.182 103.113 153.433 113.182 153.566C117.678 153.827 122.982 154.553 125.826 158.389C129.473 163.919 127.411 171.387 123.388 176.174C113.708 188.429 80.4832 193.758 64.9057 195.584ZM65.1779 199.998C65.3541 199.951 65.5315 199.908 65.7079 199.867C68.5331 202.219 81.8388 208.327 80.8267 211.975C80.469 212.429 79.6128 212.532 79.0715 212.679C78.1288 212.934 77.1768 213.155 76.2158 213.33C73.1092 213.895 69.8917 213.993 66.7891 213.349C65.6477 213.175 64.6173 212.688 63.5777 212.217C60.2184 210.739 56.5187 209.107 53.1756 207.641C48.9286 205.958 41.4793 202.639 44.5431 197.04C47.4458 200.305 51.1302 200.02 52.9862 195.962C53.6262 194.73 54.1847 193.07 55.6881 192.572C56.481 192.036 57.4951 191.924 58.1576 192.522C58.2055 192.447 58.2483 192.343 58.2716 192.251C59.0187 193.314 59.663 194.433 60.5384 195.405C60.2378 195.421 57.1088 197.737 58.0322 197.738C59.1432 197.166 60.247 196.689 61.4466 196.381C62.3159 197.255 63.272 198.068 64.2626 198.82C63.3005 199.456 62.4362 200.234 61.7411 201.078C61.681 201.153 61.7544 201.249 61.8441 201.209C62.9234 200.728 64.0333 200.305 65.1779 199.998ZM79.4997 215.774C68.693 220.628 57.2524 215.223 48.0368 209.46C45.9098 208.273 43.1121 206.589 43.5422 203.793C45.1087 206.085 47.6914 207.39 50.1701 208.522C54.3346 210.404 58.5264 212.226 62.7012 214.086C63.0955 215.394 64.9811 215.444 66.1206 215.734C71.1932 216.718 76.6459 216.229 81.4199 214.267C81.1436 215.085 80.2397 215.461 79.4997 215.774ZM36.3832 196.873C36.1163 196.907 35.8492 196.938 35.5822 196.968C35.6098 196.615 35.3967 196.261 35.0543 196.152C35.2082 195.403 35.2653 194.629 35.1827 193.869C35.6291 195.022 37.0703 194.672 37.9855 194.34C39.2932 193.984 40.5926 193.602 41.885 193.194C42.3946 194.141 42.9348 195.074 43.5983 195.931C41.1827 196.146 38.7897 196.573 36.3832 196.873ZM35.3203 193.244C35.2561 193.38 35.1644 193.523 35.1623 193.686C35.0971 193.125 34.9697 192.571 34.7761 192.04C34.9574 192.441 35.1389 192.843 35.3203 193.244ZM33.7956 190.236C32.6072 188.687 30.4108 187.42 28.3806 187.852C28.2501 187.88 28.2469 188.09 28.3806 188.116C31.1079 188.487 33.5031 190.65 33.5978 193.447C33.8129 194.713 32.9323 195.956 33.2289 197.171C33.1698 197.175 33.1107 197.178 33.0526 197.182C33.0312 197.263 33.0117 197.335 32.9862 197.399C33.2809 197.448 33.3675 197.922 33.0199 198.006C32.8141 198.056 32.599 198.083 32.3799 198.094C31.268 197.793 30.0949 197.724 29.0318 197.28C27.98 196.816 28.243 195.509 27.872 194.605C27.5998 193.562 27.2868 192.523 26.8925 191.522C26.864 191.441 26.7549 191.459 26.7458 191.541C26.4675 193.538 26.4767 195.569 26.5439 197.581C26.1791 197.619 25.8162 197.66 25.4523 197.705C25.4758 197.143 23.789 190.293 22.9003 192.051C23.3477 193.983 23.4017 196.002 23.4496 197.991C20.8109 198.426 18.2109 199.073 15.6813 199.955C13.8987 200.495 11.7787 202.093 10.0481 200.649C8.70789 199.54 8.25639 197.607 8.38277 195.961C10.1256 186.226 23.891 185.088 32.0171 185.808C32.7845 187.579 33.5663 189.344 34.3582 191.105C34.1941 190.802 34.0066 190.511 33.7956 190.236ZM6.08039 195.771C5.93158 193.561 6.30359 190.809 7.94145 189.161C11.6901 185.992 16.939 184.995 21.6232 183.847C23.8052 183.417 26.017 183.131 28.2379 182.988C29.0257 182.926 30.0266 183.104 30.5829 182.46C30.8694 183.139 31.1598 183.816 31.4504 184.494C22.1247 183.272 2.66809 187.517 8.11675 200.292C6.96291 199.042 6.19851 197.52 6.08039 195.771ZM52.4124 188.464C52.8414 189.536 53.3663 190.557 54.0522 191.49C53.2726 192.001 52.6366 192.754 52.1881 193.565C49.314 201.084 46.24 197.056 42.4211 193.021C45.653 191.802 49.9336 190.888 52.4124 188.464ZM4.57197 194.241C-2.90185 186.858 -4.35218 174.559 -1.59116 164.891C-1.34553 161.306 -0.0919071 157.889 1.03125 154.495C4.60764 144.198 9.31126 134.292 14.9526 124.939C21.9514 126.862 28.9381 128.836 35.9532 130.695C36.9193 130.905 37.8866 131.32 38.8783 131.38C39.233 131.606 39.5887 131.855 39.9577 132.073C39.4206 134.705 39.9159 137.392 40.0413 140.039C40.1553 142.123 39.9302 144.164 39.6539 146.226C39.3451 149.226 38.0741 158.983 40.6212 160.77C41.4845 161.186 42.256 159.952 42.628 160.292C42.9633 160.058 43.2762 159.754 43.531 159.418C44.5145 162.599 46.1218 165.549 47.1145 168.733C48.4353 173.411 52.7731 180.984 51.81 185.447C51.065 188.202 47.8055 188.797 45.4532 189.697C42.735 190.643 39.9862 191.512 37.1926 192.216C35.8289 189.322 34.5253 186.4 33.2462 183.468C27.4001 169.938 22.2225 156.125 17.5953 142.148C17.5087 141.838 16.4447 138.477 16.25 139.414C16.2337 139.318 16.1124 139.069 16.0665 139.282C16.8513 142.564 17.6472 145.845 18.5086 149.109C16.3927 148.812 14.1178 148.697 12.1813 149.734C12.0815 149.787 12.1548 149.919 12.2536 149.903C14.5468 149.505 16.7586 150.256 18.9611 150.795C22.0544 161.325 26.0456 171.587 30.2702 181.721C28.9635 181.304 27.447 181.765 26.0833 181.798C21.7883 182.242 17.5423 183.182 13.4849 184.643C8.38481 186.297 4.77886 188.453 4.57197 194.241ZM0.457342 117.404C-0.798215 116.051 -1.78491 114.325 -1.59421 112.492C-0.840002 111.487 -0.590298 110.174 -0.151021 109.012C1.56634 104.147 3.16037 99.2442 5.02959 94.4314C9.0055 95.6542 12.9171 97.121 16.6067 99.0474C17.2855 99.3939 17.9572 99.7533 18.6207 100.126C19.3158 100.515 20.074 101.192 20.9078 100.998C19.9966 102.288 18.1202 103.631 17.8033 105.121C17.735 105.593 18.0693 106.031 18.583 105.926C26.6234 111.637 34.9269 117.228 42.5271 123.59C48.2183 128.096 52.5877 131.75 54.5394 139.061C55.8552 143.797 55.8592 148.746 55.6656 153.615C55.6279 154.562 55.6269 155.531 55.5505 156.484C55.6646 157.197 55.4475 158.647 54.6464 158.673C54.6648 158.846 54.7219 159.006 54.8126 159.146C54.7871 159.18 54.7606 159.212 54.7331 159.246C54.6933 159.051 54.6546 158.857 54.6179 158.662C53.9941 155.899 53.9106 152.694 54.0145 149.752C54.0583 148.909 52.765 148.929 52.6926 149.752C52.498 151.976 52.3033 154.2 52.1086 156.422C51.8751 157.863 52.2432 159.748 51.0915 160.843C49.9204 159.761 50.3077 157.626 50.3648 156.23C50.4564 153.952 50.5554 151.675 50.64 149.397C50.6665 148.675 49.4709 148.489 49.3353 149.223C48.9511 151.315 48.5353 153.402 48.0878 155.482C47.8178 156.286 47.6323 159.894 46.2829 159.268C45.4787 158.719 46.0586 155.499 45.9526 154.433C46.0026 152.322 46.032 150.215 46.1871 148.11C46.2502 147.26 44.8672 147.08 44.6776 147.909C44.3698 149.251 44.0753 150.594 43.8082 151.945C43.2222 154.223 43.4352 157.311 41.3193 158.825C40.4907 152.908 41.6831 147.031 41.8503 141.135C41.7505 139.225 41.4223 137.333 41.1328 135.446C40.8128 133.359 40.6263 131.087 41.3754 129.074C41.1705 128.172 40.3654 130.611 40.2899 130.814C39.6835 129.619 38.2067 129.527 37.0387 129.154C34.4428 128.314 31.7837 127.68 29.1572 126.933C22.1918 124.999 15.2185 123.094 8.24314 121.194C5.45664 120.423 2.52337 119.51 0.457342 117.404ZM70.2066 148.879C69.2455 143.669 69.272 138.39 69.6827 133.124C70.1343 124.956 70.5725 116.785 71.0413 108.618C73.0767 123.4 75.2466 138.166 76.9057 152.995C77.024 154.027 77.0057 155.119 77.5265 156.04C74.6483 156.425 71.5804 156.814 68.7818 155.835C70.0099 153.712 70.4431 151.294 70.2066 148.879ZM84.7496 112.185C86.9256 126.195 85.6842 140.452 87.795 154.446C84.8668 154.774 81.9611 155.26 79.0634 155.794C79.3805 154.065 78.7791 152.28 78.6752 150.539C77.1014 138.122 75.3638 125.714 73.0614 113.405C72.4967 110.459 71.926 107.526 71.2717 104.596C71.3705 102.822 71.4572 101.048 71.5143 99.2733C74.7095 97.2645 78.3123 95.9643 82.0385 95.3088C83.0454 100.919 84.0515 106.525 84.7496 112.185ZM59.56 68.1599C59.4326 67.9421 59.3113 67.7192 59.1951 67.4933C59.5886 67.5083 59.9718 67.5224 60.3591 67.5867C60.3417 68.2101 60.3764 68.8386 60.3835 69.4671C60.1898 69.0072 59.8107 68.5876 59.56 68.1599ZM125.28 155.957C115.986 149.198 100.72 153.504 89.9537 154.199C87.901 140.739 88.7388 127.059 86.8256 113.577C85.0635 100.108 83.2055 86.4509 78.7802 73.5461C76.9537 68.5564 73.7942 67.0746 68.5922 67.1148C65.9525 67.0114 63.1609 66.5887 60.5955 66.6489C60.0329 66.658 59.4448 66.7323 58.9373 66.9592C58.2238 65.3509 57.8365 63.6241 57.6409 61.8842C57.6286 61.7738 57.488 61.7537 57.4462 61.8591C56.8428 63.3741 56.7786 65.0276 57.1067 66.6138C57.3443 67.7503 58.7579 72.2229 60.3998 70.473C60.5302 74.1425 59.724 78.5247 56.1294 80.4292C49.848 83.168 41.1653 80.6742 37.5269 74.8613C36.8236 73.6997 36.2172 72.4638 35.4385 71.3485C40.8638 69.8124 43.909 63.3118 42.6311 58.3613C41.8412 62.2115 40.4009 66.5134 36.8145 68.6699C23.7543 68.6408 12.8958 74.5892 6.7602 86.0462C5.55957 87.7099 4.44966 89.4386 3.4325 91.1976C2.88508 92.3743 1.28198 94.0107 2.64262 95.1472C1.071 99.3417 -0.323266 103.594 -1.79703 107.822C-2.20176 109.231 -3.1272 110.708 -2.94262 112.189C-3.14238 113.102 -3.13321 114.181 -2.67559 115.059C-2.24141 116.623 -1.26715 118.727 0.348389 119.391C1.71922 120.643 3.45288 121.505 5.26095 122.155C0.438996 134.756 -1.39649 148.347 -3.03027 161.661C-4.63154 173.309 -5.45801 187.478 4.57502 195.896C4.76969 198.304 6.19851 201.373 9.02385 201.4C10.9806 203.321 13.3657 202.267 15.5437 201.327C19.22 199.966 23.0756 199.211 26.9068 198.79C27.3175 199.112 27.9861 199.058 28.352 198.684C30.6727 198.149 33.8893 200.315 34.3582 198.353C37.3506 198.062 40.3103 197.518 43.2996 197.201C42.0398 198.835 42.1306 201.246 43.0795 203.012C40.663 207.766 46.292 210.518 49.7339 212.469C54.3803 215.16 59.2329 217.713 64.5469 218.828C69.2189 219.811 74.1132 219.513 78.6211 217.943C80.9898 217.347 84.2981 215.393 82.8925 212.639C84.6742 207.398 72.1625 201.968 68.4821 199.343C69.9865 199.156 70.0415 196.033 66.1288 197.828C65.6559 197.511 65.1911 197.185 64.7315 196.853C80.5575 195.033 110.782 190.029 122.236 179.21C128.528 173.647 132.159 162.395 125.28 155.957Z" fill="black"/>
<path fill-rule="evenodd" clip-rule="evenodd" d="M52.0598 21.084C57.8469 21.084 65.317 24.7142 65.954 28.4322C66.7047 32.8137 70.7245 49.6262 69.8168 55.0177C68.9091 60.4092 64.0175 64.2905 56.1902 64.2905C48.3629 64.2905 42.5206 60.0219 41.1792 58.5563C40.2849 57.5792 39.0091 55.3464 37.3518 51.858C34.5579 51.4864 33.1542 50.1619 33.1408 47.8844C33.1277 45.6069 34.0361 44.0538 35.8658 43.2252C35.2134 34.2372 35.7088 28.5732 37.3518 26.2332C39.8164 22.7231 46.2727 21.084 52.0598 21.084Z" fill="white"/>
<path fill-rule="evenodd" clip-rule="evenodd" d="M65.6001 27.8323C65.596 27.754 65.7101 27.7448 65.7315 27.8141C66.98 31.9388 67.7496 35.1533 68.5598 39.3821L68.7991 40.626C69.4384 43.9439 70.0844 47.2665 70.6299 50.6004L70.6619 50.7995C70.9352 52.5252 71.0927 54.2678 70.7502 55.9971C70.4301 57.6136 69.5557 59.0955 68.4203 60.2757C66.2259 62.5568 63.1764 63.9816 60.1087 64.6186C58.5574 64.9406 56.9573 65.065 55.3765 64.9529C54.5886 64.8977 53.8018 64.7866 53.0303 64.6226L52.9451 64.6044C52.1674 64.4365 51.4772 64.2362 51.0642 63.5045C50.9603 63.3201 51.0021 63.0041 51.2202 62.9094C51.632 62.7319 51.9347 62.6576 52.384 62.7086C52.8131 62.7574 53.2321 62.8869 53.6561 62.9674C54.4664 63.1213 55.2899 63.1987 56.1144 63.2171C57.7339 63.2528 59.3575 63.05 60.9057 62.5669C63.5657 61.7362 66.2687 60.1473 67.823 57.7705C69.6514 54.9746 68.9233 51.5812 68.4389 48.4934L68.4242 48.4C67.9338 45.2439 67.4488 42.0878 66.9781 38.9297L66.7772 37.576C66.2494 33.9996 65.751 31.4465 65.6001 27.8323ZM38.5923 19.0785C39.9199 18.2034 41.5697 17.9884 43.1291 18.0005L43.3244 18.0029C45.3211 18.0334 55.3722 18.2726 58.7373 18.3462L59.5379 18.363C60.5975 18.383 62.7345 18.4039 63.8355 18.424L63.8991 18.4252C64.4392 18.4354 64.9794 18.4395 65.5196 18.4568L65.5988 18.4596C66.0034 18.4769 66.3401 18.5375 66.657 18.8227C66.8182 18.9672 66.8811 19.1877 66.8663 19.3977L66.8639 19.425L67.666 19.4954C68.2107 19.5435 68.4987 20.032 68.2823 20.5263L68.2714 20.5502C67.8872 21.3697 67.5937 23.7546 67.3878 24.6362C67.2798 25.1 67.193 25.5708 67.1421 26.0448C67.1014 26.4179 67.0973 26.7918 66.8894 27.12C66.446 27.8202 65.1986 27.8141 65.1761 26.8224C65.1751 26.7908 65.1761 26.7602 65.1792 26.7307C62.04 26.5931 57.7543 26.6063 54.6192 26.7939C51.6911 26.9692 48.7761 27.3667 45.9071 27.9751C45.1804 28.129 44.4557 28.2972 43.7362 28.4796C43.1461 28.6284 42.4214 28.7171 41.8935 29.0361C41.3023 29.3949 41.3135 30.038 41.3777 30.6505C41.4467 31.2998 41.5616 30.9653 41.7244 31.5569L41.7345 31.5943C41.9026 32.2364 42.1105 32.8714 42.3857 33.4747C42.5427 33.8192 42.7955 34.1505 42.6996 34.5469C42.6456 34.7702 42.4692 35.0086 42.3072 35.1646C41.5692 35.8729 40.3218 35.4214 39.8204 36.3917C39.2956 37.4063 39.2826 38.7807 39.238 39.9034L39.2354 39.9691C39.2029 40.7427 39.2119 41.5183 39.2629 42.2898C39.3088 42.993 39.4962 43.6892 39.2558 44.3649C39.0803 44.8562 38.5077 44.9021 38.208 44.5025C38.1736 44.4567 38.1421 44.4097 38.1126 44.3624L38.0837 44.315L38.0817 44.316C38.1102 44.3609 38.1367 44.4068 38.1621 44.4536C38.1897 44.5056 38.1214 44.5627 38.0796 44.5178C37.3743 43.7504 36.3439 43.9032 35.5459 44.4404C34.7376 44.9866 34.4186 46.0242 34.3768 46.9548C34.3299 47.9871 34.4217 49.1971 34.8518 50.151C35.0332 50.5546 35.292 50.9255 35.7212 51.0794C35.9159 51.1488 36.1013 51.1396 36.3041 51.1559C36.515 51.1721 36.7689 51.2782 36.9737 51.2639C37.2399 51.245 37.4789 51.5489 37.4033 51.8035L37.3977 51.8204C37.3938 51.8326 37.3896 51.8449 37.3856 51.8561C37.3957 51.8653 37.4059 51.8765 37.413 51.8928C38.1876 53.4756 39.2496 54.8841 40.4238 56.1908C41.0119 56.8441 41.6641 57.4444 42.346 57.9998C42.6823 58.274 43.037 58.5483 43.411 58.7693C43.5354 58.8416 43.6494 58.8906 43.7893 58.9305C43.8544 58.9487 43.9288 58.9579 43.992 58.9793L44.0576 59.0018C44.0621 59.0032 44.0664 59.0046 44.0705 59.0058C44.258 59.0272 44.416 59.1515 44.4782 59.3462C44.6402 59.8538 44.3457 60.3022 43.8422 60.4418C43.2967 60.5944 42.7826 60.3266 42.3502 60.0191L42.3215 59.9985C41.4399 59.3636 40.6276 58.6511 39.9244 57.8194C38.5331 56.1775 37.6616 54.2767 37.2582 52.1741C37.1582 52.3891 37.0237 52.5767 36.7903 52.7071C36.4275 52.911 35.9943 52.911 35.5968 52.8427C34.7967 52.7071 34.1149 52.2189 33.6593 51.5585C33.1863 50.8736 33.0101 50.0419 32.9031 49.2316C32.7971 48.4202 32.7451 47.606 32.8511 46.7927C33.003 45.6247 33.4932 44.4699 34.4461 43.8299C33.7327 42.2756 33.6073 40.5327 33.6583 38.8307C33.7205 36.7352 34.0823 34.6163 34.3605 32.5401L35.1515 26.6379L35.1839 26.4C35.3748 25.0115 35.6071 23.6156 36.1268 22.3073C36.6395 21.018 37.4181 19.8521 38.5923 19.0785ZM35.2636 47.0006C36.5702 46.3666 37.9818 46.9506 38.685 48.1808C39.2965 49.2504 37.4785 49.9573 37.1751 48.8548L37.1664 48.8209C36.9666 47.9861 36.1532 47.2645 35.3043 47.1524C35.234 47.1423 35.1819 47.0404 35.2636 47.0006Z" fill="black"/>
<path fill-rule="evenodd" clip-rule="evenodd" d="M56.8348 49.1605C57.7849 48.82 58.7933 48.9481 59.7518 49.3016L59.8377 49.3338C60.7181 49.6695 61.794 50.2524 62.1542 51.1629C62.2256 51.3434 62.259 51.5281 62.2635 51.7118C62.3812 51.7234 62.4979 51.7387 62.6136 51.759C62.8517 51.8009 62.8405 52.1792 62.6136 52.229C62.4699 52.2605 62.3235 52.2835 62.1758 52.3007C62.0393 52.7253 61.7566 53.1107 61.3997 53.381C60.5642 54.0136 59.4127 54.1327 58.4026 54.2295C57.2857 54.3364 56.1633 54.3104 55.0505 54.175L54.6588 54.125C53.7476 54.0066 52.7315 53.8543 51.9568 53.3668C51.2276 52.9081 50.7288 52.0223 51.0375 51.162C51.3535 50.281 52.4369 49.9071 53.2411 49.6243C54.3966 49.2178 55.6261 49.0584 56.8348 49.1605ZM55.2227 52.1129C55.234 52.3703 55.2437 52.628 55.2539 52.8856C55.257 52.9646 55.2342 53.036 55.1955 53.0977C55.7481 53.1627 56.3056 53.1932 56.8616 53.1928C56.7599 52.8855 56.7545 52.5327 56.7487 52.2046C56.2396 52.1797 55.7311 52.1502 55.2227 52.1129ZM57.2689 52.2287L57.3132 52.3951C57.3819 52.6559 57.4443 52.9242 57.4351 53.1816C57.6943 53.1718 57.9527 53.1563 58.2096 53.134L58.5374 53.1062C58.6119 53.0998 58.6873 53.0931 58.7633 53.0859C58.7802 52.8191 58.8116 52.5487 58.8395 52.2819C58.3158 52.2677 57.7922 52.2508 57.2689 52.2287ZM59.3461 52.2935C59.37 52.5292 59.3922 52.7703 59.4016 53.0091C59.8223 52.9435 60.235 52.8415 60.5875 52.6612C60.7649 52.5705 60.907 52.4608 61.013 52.3394C60.6569 52.331 60.3018 52.313 59.9573 52.3073C59.8894 52.3062 59.8215 52.3048 59.7536 52.3033L59.3461 52.2935ZM52.0379 51.7512C52.0654 52.2431 52.8432 52.5943 53.2436 52.7098C53.6257 52.8202 54.0147 52.9097 54.4076 52.9808C54.4001 52.9479 54.3965 52.9155 54.3991 52.8856C54.4241 52.608 54.4486 52.3305 54.4748 52.0533L54.264 52.0365C53.5229 51.9794 52.7522 51.9337 52.0379 51.7512ZM56.8915 49.8767C56.9537 50.4931 57.0402 51.106 57.1553 51.7147L57.3662 51.7192C57.8725 51.7272 58.3788 51.7305 58.8851 51.7311C58.8865 51.7062 58.8878 51.6815 58.8887 51.6569C58.9077 51.142 58.9004 50.627 58.8816 50.1123C58.2384 49.9703 57.5651 49.924 56.8915 49.8767ZM59.1457 50.1769C59.2021 50.6937 59.2491 51.2115 59.2919 51.7299L59.7356 51.7291C59.8095 51.7289 59.8834 51.7286 59.9573 51.7279C60.3729 51.7241 60.7998 51.6968 61.2262 51.6854C61.1944 51.4628 61.0634 51.2365 60.8218 51.0305C60.3106 50.5946 59.7435 50.3373 59.1457 50.1769ZM56.496 49.7583C56.0072 49.8107 55.5221 49.8965 55.044 50.0167C55.1688 50.3786 55.145 50.7928 55.1714 51.1708C55.1831 51.3373 55.1927 51.5038 55.2014 51.6702C55.7129 51.6828 56.2243 51.6948 56.7357 51.7057C56.7194 51.0929 56.7299 50.4801 56.7645 49.8677L56.7087 49.8637C56.626 49.8578 56.5521 49.8165 56.496 49.7583ZM54.72 50.1036C54.4964 50.1675 54.2747 50.2385 54.055 50.318L53.8155 50.4045C53.238 50.615 52.4737 50.9197 52.1518 51.3903C52.0977 51.4694 52.0651 51.5459 52.0491 51.6198C52.8587 51.5451 53.6981 51.6204 54.515 51.6512C54.5261 51.5444 54.5376 51.4376 54.5498 51.3309L54.5685 51.1708C54.6103 50.8252 54.6099 50.4413 54.72 50.1036ZM58.7644 42.7021C59.534 43.17 60.7067 44.2608 59.8788 45.4206C58.9042 46.4432 57.501 45.2707 56.8096 44.7404C56.1684 44.3295 55.448 45.3865 56.0429 45.8663C61.0394 49.5655 63.0671 42.8245 59.1537 42.1521C58.7228 42.078 58.5628 42.5574 58.7644 42.7021ZM49.3309 37.0298C50.4246 35.129 53.1305 35.1071 54.6785 36.5587C56.1566 37.9447 56.3394 40.3093 55.1589 41.9303C53.9007 43.6578 51.4565 44.1357 49.4745 43.52C47.6165 42.9428 46.6178 40.927 47.2547 39.08C47.5992 38.0809 48.3921 37.3902 49.3309 37.0298ZM48.3118 33.8461C49.2361 33.0279 50.9157 32.2377 52.1621 32.6404C52.8787 32.8718 53.191 34.0265 52.3911 34.3925C51.4647 34.8163 50.3967 34.6438 49.4538 35.0831C49.0579 35.2677 48.6855 35.4983 48.4098 35.8366C48.1926 36.1032 47.9716 36.454 47.6575 36.6077C47.5749 36.6482 47.4631 36.6492 47.397 36.5742C46.7084 35.7953 47.7106 34.3782 48.3118 33.8461ZM61.515 32.5997C62.0862 32.4394 62.72 32.4427 63.3003 32.5434C63.8804 32.6441 64.4694 32.8845 64.943 33.2352L64.998 33.2763C65.5151 33.6659 66.1321 34.2328 66.099 34.923C66.0714 35.4994 65.4651 35.8892 64.9416 35.5871C64.5149 35.3408 64.3141 34.8473 63.9528 34.5187C63.6547 34.2475 63.3045 34.0337 62.9308 33.8838C62.5158 33.7174 62.1001 33.6394 61.6547 33.632C61.3117 33.6263 60.9667 33.7388 60.6302 33.7748C60.6579 33.8317 60.3919 33.8052 60.2394 33.7547C60.1265 33.7066 60.1259 33.5638 60.165 33.4712C60.3592 33.0122 61.0656 32.7257 61.515 32.5997ZM62.1368 35.8249C63.0938 35.6349 64.1577 35.8429 64.9586 36.4039C66.3947 37.4098 67.0389 39.49 66.3715 41.1169C65.7092 42.7316 63.899 43.7589 62.1729 43.4504C60.4108 43.1354 59.0477 41.361 59.2378 39.5733C59.3186 38.8123 59.6506 38.1264 60.1417 37.6079C60.1455 37.5901 60.1497 37.572 60.1567 37.5535C60.502 36.6345 61.1564 36.0197 62.1368 35.8249ZM53.3804 37.2864C52.2832 36.6259 50.6701 36.9947 49.7277 37.792C49.5405 37.9504 49.3294 37.904 49.2145 37.7658C48.5748 38.2821 48.1232 39.0044 48.0507 39.884C47.9207 41.4616 49.0442 42.4992 50.5579 42.6185C52.1049 42.7405 53.7058 42.3088 54.4344 40.8266C55.0636 39.547 54.6018 38.0215 53.3804 37.2864ZM63.767 37.3546C62.908 37.0178 61.6758 37.2168 60.9257 37.7933C60.3547 38.5296 60.0767 39.5398 60.2963 40.3672C60.6134 41.5621 61.76 42.4929 63.0197 42.3605C64.1854 42.238 65.2387 41.3049 65.3638 40.12C65.4842 38.9805 64.8588 37.7827 63.767 37.3546ZM63.0382 39.1428C63.2339 39.0031 63.4675 39.1604 63.5392 39.3466L63.5802 39.431C63.6019 39.4761 63.6241 39.5228 63.6249 39.5245L63.6327 39.5471C63.6431 39.5665 63.6555 39.5847 63.6673 39.6031C63.6765 39.6094 63.7526 39.7047 63.7628 39.7172C63.8856 39.8688 63.9509 40.0075 63.947 40.2071C63.9395 40.6016 63.5714 40.8795 63.1897 40.784C62.7792 40.6812 62.6044 40.2566 62.6418 39.8668C62.6714 39.5582 62.7839 39.3241 63.0382 39.1428ZM51.8923 39.2181C52.0734 39.0534 52.3528 39.0395 52.5316 39.2181C52.6298 39.3162 52.6695 39.4254 52.7399 39.5395L52.7733 39.5919C52.8466 39.7044 52.9233 39.8124 52.943 39.9505C52.9896 40.2755 52.8888 40.578 52.5686 40.7133C52.2501 40.8476 51.9552 40.7102 51.7612 40.4487C51.5317 40.1389 51.6014 39.4825 51.8923 39.2181Z" fill="black"/>
<path fill-rule="evenodd" clip-rule="evenodd" d="M70.3946 34.7379C70.3108 34.724 70.2268 34.7108 70.1428 34.6985C70.0773 34.6613 70.0003 34.6327 69.9108 34.6154C69.7065 34.5636 69.5035 34.5286 69.3009 34.5097C66.3929 33.8553 59.6655 34.7845 59.3879 37.2661C58.4618 37.5752 57.6605 37.2984 56.5872 37.3259C55.7702 33.9111 41.6458 34.393 40.9665 36.4518C40.9639 36.4511 40.9614 36.4505 40.9587 36.4497C40.306 36.2477 39.3438 36.2964 38.5967 36.2644C37.0016 36.231 35.4046 36.3732 33.8439 36.7096C30.9213 37.174 26.9327 37.7178 28.9652 41.3674C28.9657 41.368 28.966 41.3687 28.9665 41.3693L28.9668 41.369C29.3171 41.7281 29.9116 41.4389 29.9337 40.9528C29.2503 39.2239 30.7938 39.0163 31.9814 38.5194C34.9364 37.4578 37.9448 37.3106 41.001 37.639C41.231 37.9097 41.5798 38.1458 41.9486 38.2693C43.992 38.6085 42.9151 40.1242 44.2067 40.3447C43.9694 45.6284 50.3844 48.5126 54.1013 45.0392C55.5854 43.5883 55.9392 41.4389 56.2833 39.5015C56.4652 39.4606 56.5809 39.3612 56.6484 39.2295C57.086 38.7926 57.3609 38.3892 58.2261 38.2693C59.0913 38.1494 59.7573 38.3901 59.8474 38.4637C59.8701 38.5095 59.8945 38.5554 59.9228 38.6012C59.9624 38.6696 60.0162 38.7242 60.0773 38.7671C59.2229 44.0286 63.3076 47.3561 67.4312 44.6272C69.223 42.9417 69.6016 40.3613 69.6764 38.0581C69.9193 37.9115 70.0731 37.6275 69.989 37.2704C69.8731 36.7781 70.1448 36.3519 70.5776 36.1378C71.1399 35.8599 71.0404 34.8449 70.3946 34.7379ZM52.676 37.2341C52.1642 37.1215 51.9456 37.9107 52.4591 38.0235C52.8227 38.1035 53.1308 38.2868 53.339 38.5975L53.361 38.6312C53.6403 39.0758 54.3468 38.6654 54.0655 38.218C53.749 37.7145 53.2571 37.3618 52.676 37.2341ZM67.6671 36.7448C67.4867 36.6177 67.2136 36.712 67.1089 36.8917C66.9936 37.0894 67.0691 37.3096 67.2381 37.439L67.2553 37.4517C67.4103 37.5609 67.5613 37.7567 67.5803 37.9574L67.5819 37.9825C67.6022 38.5076 68.4183 38.5103 68.3979 37.9825C68.378 37.4662 68.0791 37.0348 67.6671 36.7448Z" fill="black"/>
</g>
</svg>
