<svg xmlns="http://www.w3.org/2000/svg" width="1604" height="900" viewBox="0 0 1604 900" fill="none">
<rect width="1600" height="900" fill="white"/>
<g filter="url(#filter0_d_18_24)">
<path d="M156 345C156 328.431 169.431 315 186 315H1600V585H186C169.431 585 156 571.569 156 555V345Z" fill="#F5F5F5"/>
</g>
<circle cx="307" cy="450" r="73" fill="url(#paint0_linear_18_24)"/>
<path d="M279.625 456.083H316.125C317.738 456.083 319.286 456.724 320.427 457.865C321.567 459.006 322.208 460.553 322.208 462.167V471.292C322.208 472.905 321.567 474.452 320.427 475.593C319.286 476.734 317.738 477.375 316.125 477.375H285.708C284.095 477.375 282.548 476.734 281.407 475.593C280.266 474.452 279.625 472.905 279.625 471.292V440.875C279.625 439.262 280.266 437.714 281.407 436.573C282.548 435.433 284.095 434.792 285.708 434.792H294.833C296.447 434.792 297.994 435.433 299.135 436.573C300.276 437.714 300.917 439.262 300.917 440.875V477.375M313.083 425.667C313.083 424.86 313.404 424.086 313.974 423.516C314.545 422.945 315.318 422.625 316.125 422.625H331.333C332.14 422.625 332.914 422.945 333.484 423.516C334.055 424.086 334.375 424.86 334.375 425.667V440.875C334.375 441.682 334.055 442.455 333.484 443.026C332.914 443.596 332.14 443.917 331.333 443.917H316.125C315.318 443.917 314.545 443.596 313.974 443.026C313.404 442.455 313.083 441.682 313.083 440.875V425.667Z" stroke="white" stroke-width="7" stroke-linecap="round" stroke-linejoin="round"/>
<rect x="563" y="425" width="286" height="49" rx="24.5" fill="#D9D9D9"/>
<rect x="878" y="425" width="286" height="49" rx="24.5" fill="#D9D9D9"/>
<rect x="1193" y="425" width="286" height="49" rx="24.5" fill="#D9D9D9"/>
<path d="M1508 449.5C1508 435.969 1518.97 425 1532.5 425H1600V474H1532.5C1518.97 474 1508 463.031 1508 449.5V449.5Z" fill="#D9D9D9"/>
<defs>
<filter id="filter0_d_18_24" x="152" y="315" width="1452" height="278" filterUnits="userSpaceOnUse" color-interpolation-filters="sRGB">
<feFlood flood-opacity="0" result="BackgroundImageFix"/>
<feColorMatrix in="SourceAlpha" type="matrix" values="0 0 0 0 0 0 0 0 0 0 0 0 0 0 0 0 0 0 127 0" result="hardAlpha"/>
<feOffset dy="4"/>
<feGaussianBlur stdDeviation="2"/>
<feComposite in2="hardAlpha" operator="out"/>
<feColorMatrix type="matrix" values="0 0 0 0 0 0 0 0 0 0 0 0 0 0 0 0 0 0 0.25 0"/>
<feBlend mode="normal" in2="BackgroundImageFix" result="effect1_dropShadow_18_24"/>
<feBlend mode="normal" in="SourceGraphic" in2="effect1_dropShadow_18_24" result="shape"/>
</filter>
<linearGradient id="paint0_linear_18_24" x1="408.908" y1="329.842" x2="234" y2="450" gradientUnits="userSpaceOnUse">
<stop stop-color="#F7C0EC"/>
<stop offset="1" stop-color="#A7BDEA"/>
</linearGradient>
</defs>
</svg>